<svg xmlns="http://www.w3.org/2000/svg" width="41" height="32" viewBox="0 0 41 32" fill="none"><path d="M34.7509 2.80256C32.1784 1.61845 29.4194 0.745943 26.5344 0.247369C26.4826 0.236982 26.429 0.261215 26.4031 0.309688C26.0475 0.943292 25.6555 1.76732 25.3793 2.41651C22.2767 1.95082 19.1897 1.95082 16.1511 2.41651C15.8765 1.75347 15.4691 0.941561 15.1117 0.309688C15.0841 0.262947 15.0323 0.238713 14.9788 0.247369C12.0955 0.745943 9.33651 1.61672 6.76226 2.80256C6.73982 2.81295 6.72082 2.82852 6.70873 2.8493C1.47565 10.6897 0.0409017 18.3363 0.745322 25.8876C0.748775 25.9239 0.76946 25.9603 0.797084 25.9828C4.25013 28.5259 7.59438 30.0683 10.8765 31.0914C10.9283 31.107 10.9853 31.088 11.0181 31.0447C11.7951 29.9818 12.4874 28.86 13.0796 27.6811C13.1141 27.6118 13.0796 27.5304 13.0088 27.5027C11.9107 27.0855 10.8662 26.5766 9.85963 25.9984C9.78021 25.9516 9.77325 25.8374 9.84749 25.7837C10.0599 25.6244 10.2705 25.46 10.4725 25.2921C10.5088 25.2609 10.5606 25.2557 10.6038 25.2748C17.2112 28.2991 24.3624 28.2991 30.8921 25.2748C30.9352 25.254 30.9854 25.2609 31.0233 25.2903C31.2253 25.4565 31.4377 25.6244 31.65 25.7837C31.7226 25.8391 31.7191 25.9516 31.6397 25.9984C30.6348 26.587 29.5886 27.0855 28.4888 27.501C28.418 27.5287 28.3852 27.6118 28.4197 27.6811C29.0257 28.8582 29.718 29.98 30.4794 31.043C30.5105 31.088 30.5693 31.107 30.621 31.0914C33.9187 30.0683 37.2647 28.5241 40.7177 25.9828C40.7488 25.9603 40.7678 25.9274 40.7695 25.8893C41.612 17.1573 39.359 9.57312 34.8009 2.85103C34.7906 2.82852 34.7715 2.81295 34.7491 2.80256H34.7509ZM14.0672 21.2896C12.0782 21.2896 10.4397 19.458 10.4397 17.2093C10.4397 14.9605 12.0472 13.1289 14.0672 13.1289C16.0872 13.1289 17.7274 14.9761 17.6946 17.2093C17.6946 19.458 16.0872 21.2896 14.0672 21.2896ZM27.4805 21.2896C25.4916 21.2896 23.8531 19.458 23.8531 17.2093C23.8531 14.9605 25.4605 13.1289 27.4805 13.1289C29.5005 13.1289 31.1407 14.9761 31.1079 17.2093C31.1079 19.458 29.5161 21.2896 27.4805 21.2896Z" fill="white"></path></svg>