<svg xmlns="http://www.w3.org/2000/svg" width="36" height="35" viewBox="0 0 36 35" fill="none"><path d="M2.14155 6.97086C1.34218 6.22646 0.943359 5.30549 0.943359 4.20966C0.943359 3.11384 1.34218 2.15132 2.14155 1.40692C2.94093 0.662526 3.96992 0.290314 5.23201 0.290314C6.4941 0.290314 7.48169 0.662526 8.27934 1.40692C9.07872 2.15132 9.47754 3.08614 9.47754 4.20966C9.47754 5.33319 9.07872 6.22646 8.27934 6.97086C7.47996 7.71525 6.46475 8.08747 5.23201 8.08747C3.99927 8.08747 2.94093 7.71525 2.14155 6.97086ZM8.80417 11.2399V34.0514H1.61669V11.2399H8.80417Z" fill="white"></path><path d="M32.7358 13.4921C34.3017 15.1973 35.0856 17.5396 35.0856 20.5207V33.6498H28.2572V21.4468C28.2572 19.9442 27.8687 18.7756 27.0918 17.943C26.3149 17.1103 25.2703 16.6948 23.9581 16.6948C22.646 16.6948 21.6015 17.112 20.8245 17.943C20.0476 18.7756 19.6591 19.9442 19.6591 21.4468V33.6498H12.791V11.1776H19.6591V14.1586C20.3549 13.165 21.2924 12.3807 22.4716 11.8025C23.6491 11.2261 24.9751 10.937 26.4478 10.937C29.0721 10.937 31.1681 11.7904 32.7341 13.4939L32.7358 13.4921Z" fill="white"></path></svg>