<svg xmlns="http://www.w3.org/2000/svg" width="151" height="150" viewBox="0 0 151 150" fill="none"><path d="M41.125 118.75C33.3292 118.75 26.6938 116.029 21.2188 110.588C15.7396 105.154 13 98.5354 13 90.7313C13 83.5688 15.4479 77.2125 20.3437 71.6625C25.2396 66.1125 31.325 63.1312 38.6 62.7188C40.0042 53.6146 44.1917 46.0938 51.1625 40.1563C58.1333 34.2188 66.2458 31.25 75.5 31.25C85.925 31.25 94.7812 34.8938 102.069 42.1813C109.356 49.4688 113 58.325 113 68.75V75H116.85C122.833 75.1917 127.854 77.3896 131.912 81.5938C135.971 85.7979 138 90.8917 138 96.875C138 103.004 135.887 108.183 131.662 112.412C127.429 116.637 122.25 118.75 116.125 118.75H41.125ZM41.125 112.5H116.125C120.5 112.5 124.198 110.99 127.219 107.969C130.24 104.948 131.75 101.25 131.75 96.875C131.75 92.5 130.24 88.8021 127.219 85.7813C124.198 82.7604 120.5 81.25 116.125 81.25H106.75V68.75C106.75 60.1042 103.702 52.7333 97.6062 46.6375C91.5104 40.5417 84.1417 37.4958 75.5 37.5C66.8583 37.5042 59.4896 40.5521 53.3938 46.6437C47.2979 52.7354 44.25 60.1042 44.25 68.75H41.125C35.0833 68.75 29.9271 70.8854 25.6563 75.1562C21.3854 79.4271 19.25 84.5833 19.25 90.625C19.25 96.6667 21.3854 101.823 25.6563 106.094C29.9271 110.365 35.0833 112.5 41.125 112.5Z" fill="white"></path></svg>