<svg xmlns="http://www.w3.org/2000/svg" width="39" height="37" viewBox="0 0 39 37" fill="none"><path d="M29.1696 0.12439H10.3902C5.20204 0.12439 0.982422 4.35535 0.982422 9.55749V26.7843C0.982422 31.9864 5.20204 36.2174 10.3902 36.2174H29.1696C34.3578 36.2174 38.5774 31.9864 38.5774 26.7843V9.55749C38.5774 4.35535 34.3578 0.12439 29.1696 0.12439ZM4.30079 9.55749C4.30079 6.19038 7.03215 3.45168 10.3902 3.45168H29.1696C32.5277 3.45168 35.259 6.19038 35.259 9.55749V26.7843C35.259 30.1514 32.5277 32.8901 29.1696 32.8901H10.3902C7.03215 32.8901 4.30079 30.1514 4.30079 26.7843V9.55749Z" fill="white"></path><path d="M19.7791 26.9452C24.6047 26.9452 28.5308 23.0086 28.5308 18.17C28.5308 13.3314 24.6047 9.39474 19.7791 9.39474C14.9535 9.39474 11.0273 13.3314 11.0273 18.17C11.0273 23.0086 14.9535 26.9452 19.7791 26.9452ZM19.7791 12.7238C22.7746 12.7238 25.2107 15.1664 25.2107 18.17C25.2107 21.1736 22.7746 23.6162 19.7791 23.6162C16.7836 23.6162 14.3474 21.1736 14.3474 18.17C14.3474 15.1664 16.7836 12.7238 19.7791 12.7238Z" fill="white"></path><path d="M29.3428 10.8108C30.6429 10.8108 31.7012 9.74963 31.7012 8.44606C31.7012 7.1425 30.6429 6.0813 29.3428 6.0813C28.0427 6.0813 26.9844 7.1425 26.9844 8.44606C26.9844 9.74963 28.0427 10.8108 29.3428 10.8108Z" fill="white"></path></svg>