<svg xmlns="http://www.w3.org/2000/svg" width="177" height="49" viewBox="0 0 177 49" fill="none"><path d="M176.587 17.083C176.019 12.6572 174.43 8.6265 171.65 5.67595C168.699 2.89595 164.668 1.30697 160.243 0.738467C155.987 0.16996 153.091 0.340512 153.091 0.340512C153.091 0.340512 150.197 0.226811 145.939 0.738467C141.513 1.30697 137.483 2.89595 134.532 5.67595C131.752 8.6265 130.163 12.6572 129.594 17.083C129.026 21.3383 129.14 24.2348 129.14 24.2348C129.14 24.2348 129.026 27.1285 129.538 31.3867C130.106 35.8125 131.695 39.8432 134.475 42.7937C137.426 45.5737 141.456 47.1627 145.882 47.7312C150.137 48.2997 153.034 48.1292 153.034 48.1292C153.034 48.1292 155.928 48.2429 160.186 47.7312C164.612 47.1627 168.642 45.5737 171.593 42.7937C174.373 39.8432 175.962 35.8125 176.53 31.3867C177.099 27.1314 176.928 24.2348 176.928 24.2348C176.928 24.2348 177.156 21.3411 176.587 17.083Z" fill="#1E4BC6"></path><path d="M137.936 17.2535H142.249C142.931 17.2535 143.496 17.3672 144.065 17.5946C144.633 17.822 145.085 18.1631 145.483 18.5582C145.881 18.9533 146.222 19.4081 146.447 19.9766C146.674 20.5451 146.788 21.1108 146.788 21.7361C146.788 22.3615 146.674 22.9271 146.447 23.4957C146.22 24.0642 145.878 24.519 145.483 24.9141C145.088 25.3092 144.577 25.6531 144.065 25.8777C143.553 26.1051 142.931 26.2188 142.249 26.2188H140.318V29.7947H137.99V17.2506H137.934L137.936 17.2535ZM140.264 19.4109V24.0073H142.081C142.422 24.0073 142.763 23.9505 143.044 23.8368C143.326 23.7231 143.556 23.5525 143.784 23.3251C144.011 23.0977 144.125 22.8703 144.238 22.586C144.352 22.3018 144.409 22.0175 144.409 21.6793C144.409 21.341 144.352 21.0539 144.238 20.7725C144.125 20.4883 143.954 20.2609 143.784 20.0335C143.556 19.806 143.329 19.6355 143.044 19.5218C142.76 19.4081 142.419 19.3512 142.081 19.3512H140.264V19.4081V19.4109ZM152.183 29.7976C151.558 29.7976 150.992 29.6839 150.367 29.4564C149.798 29.229 149.233 28.8879 148.778 28.4928C148.323 28.038 147.928 27.5264 147.644 26.9039C147.359 26.2813 147.189 25.5423 147.189 24.7464C147.189 23.9505 147.303 23.2142 147.587 22.5889C147.871 21.9635 148.269 21.4547 148.721 20.9999C149.173 20.5451 149.741 20.2609 150.31 20.0363C150.935 19.8089 151.501 19.6952 152.183 19.6952C152.865 19.6952 153.488 19.8089 154 20.0363C154.568 20.2637 155.02 20.6048 155.418 20.9999V19.6952H157.746V29.7976H155.418V28.3791C155.077 28.8339 154.568 29.175 154 29.4564C153.431 29.6839 152.865 29.7976 152.183 29.7976ZM152.581 27.6969C153.036 27.6969 153.431 27.6401 153.772 27.4695C154.113 27.299 154.454 27.1284 154.736 26.8442C155.017 26.5599 155.191 26.2757 155.361 25.9374C155.532 25.5963 155.589 25.1983 155.589 24.8032C155.589 24.4081 155.532 24.0073 155.361 23.6691C155.191 23.3279 155.02 22.9868 154.736 22.7623C154.452 22.478 154.167 22.3075 153.772 22.1369C153.374 21.9095 152.976 21.8527 152.581 21.8527C152.186 21.8527 151.785 21.9095 151.39 22.0801C150.992 22.2506 150.708 22.4212 150.427 22.7054C150.145 22.9897 149.915 23.2739 149.801 23.6122C149.631 23.9533 149.574 24.3513 149.574 24.7464C149.574 25.1415 149.631 25.5394 149.801 25.8805C149.972 26.2216 150.199 26.5627 150.427 26.847C150.711 27.1313 151.052 27.3018 151.39 27.4724C151.731 27.5861 152.129 27.6998 152.581 27.6998M160.981 19.7549L163.818 26.6224L166.427 19.7549H168.869L162.911 34.3968H160.526L162.627 29.3456L158.539 19.7549H160.981Z" fill="white"></path><path d="M103.731 15.6646V32.6345H97.6024L93.404 18.672H93.2903L93.5177 32.6345H89.3164V15.6646H95.6723L99.6462 29.1154H99.703L99.4756 15.6646H103.731Z" fill="#1E4BC6"></path><path d="M15.5352 32.805L18.7131 15.6646H26.3197L29.4977 32.805H24.8985L22.5733 17.1967H22.5164L20.1315 32.805H15.5352Z" fill="#1E4BC6"></path><path d="M51.629 15.6646L52.0269 32.805H47.7148L47.6011 17.3672H47.4874L44.6505 32.805H40.2787L37.4419 17.3672H37.3282L37.2145 32.805H32.9023L33.2975 15.6646H40.3356L42.4362 28.7743H42.4931L44.6505 15.6646H51.629Z" fill="#1E4BC6"></path><path d="M78.4766 30.1956C79.6676 30.1956 80.0656 29.3997 80.1225 28.9477C80.1793 28.7772 80.1793 28.4929 80.1793 28.2684V15.6674H84.5483V27.9841C84.5483 28.3252 84.4914 28.9477 84.4914 29.1183C84.2072 32.2962 81.6546 33.3736 78.4738 33.3736C75.293 33.3736 72.7972 32.3502 72.5158 29.1183C72.5158 28.9477 72.459 28.3224 72.459 27.9841V15.6674H76.828V28.3792C76.828 28.6066 76.828 28.834 76.8848 29.0614C76.9417 29.4025 77.2828 30.1956 78.4738 30.1956" fill="#1E4BC6"></path><path d="M8.2691 27.9245C8.43965 28.3224 8.3828 28.8881 8.32595 29.1723C8.1554 29.7409 7.81429 30.3065 6.62327 30.3065C5.54595 30.3065 4.92059 29.6812 4.92059 28.7744V27.1286H0.324219V28.4333C0.324219 32.2934 3.33162 33.4276 6.56642 33.4276C9.80122 33.4276 12.243 32.3503 12.6381 29.5106C12.8655 28.0353 12.6949 27.0717 12.6381 26.6738C11.899 23.0979 5.37256 22.0205 4.92059 19.9768C4.86374 19.6356 4.86374 19.2945 4.92059 19.07C5.0343 18.5015 5.43225 17.9358 6.50957 17.9358C7.53004 17.9358 8.09855 18.5612 8.09855 19.4679V20.5453H12.3538V19.3542C12.3538 15.6078 9.00531 15.0421 6.56358 15.0421C3.49933 15.0421 1.00074 16.0626 0.548779 18.8454C0.435078 19.5845 0.435078 20.2638 0.60563 21.1735C1.28784 24.7465 7.41634 25.713 8.26626 27.9273" fill="#1E4BC6"></path><path d="M64.0597 27.9244C64.2302 28.3223 64.1734 28.8311 64.1165 29.1722C64.0028 29.7407 63.6049 30.3064 62.4707 30.3064C61.3365 30.3064 60.768 29.6811 60.768 28.7743V27.1285H56.2285V28.4332C56.2285 32.2365 59.2359 33.3707 62.4139 33.3707C65.5918 33.3707 68.0336 32.3473 68.4287 29.5105C68.6561 28.0352 68.4855 27.0716 68.4287 26.7305C67.6896 23.1546 61.2769 22.1341 60.8249 20.1472C60.7112 19.8061 60.768 19.465 60.8249 19.2404C60.9386 18.6719 61.3365 18.1063 62.357 18.1063C63.3775 18.1063 63.946 18.7316 63.946 19.6384V20.7157H68.2013V19.5247C68.2013 15.8351 64.8528 15.2694 62.4679 15.2694C59.4605 15.2694 56.9619 16.233 56.5099 19.0159C56.3962 19.7549 56.3394 20.4343 56.5668 21.2871C57.1893 24.7493 63.2069 25.7129 64.0569 27.9272" fill="#1E4BC6"></path><path d="M114.287 30.0221C115.535 30.0221 115.933 29.2262 116.047 28.7743C116.104 28.6037 116.104 28.3194 116.104 28.1489V25.6531H114.344V23.1546H120.416V27.7509C120.416 28.092 120.416 28.3194 120.359 28.8851C120.075 32.0062 117.352 33.1404 114.287 33.1404C111.223 33.1404 108.554 32.0062 108.27 28.8851C108.213 28.3166 108.213 28.0892 108.213 27.7509V20.5423C108.213 20.258 108.27 19.6924 108.27 19.4081C108.668 16.1733 111.22 15.1528 114.287 15.1528C117.354 15.1528 120.021 16.1733 120.302 19.4081C120.359 19.9198 120.359 20.5423 120.359 20.5423V21.1108H116.047V20.1472C116.047 20.1472 116.047 19.7492 115.99 19.465C115.933 19.067 115.592 18.2171 114.287 18.2171C112.983 18.2171 112.698 19.067 112.585 19.465C112.528 19.6924 112.528 19.9766 112.528 20.2609V28.092C112.528 28.3194 112.528 28.5468 112.585 28.7174C112.585 29.2859 113.04 30.0221 114.287 30.0221Z" fill="#1E4BC6"></path></svg>