<svg xmlns="http://www.w3.org/2000/svg" width="36" height="29" viewBox="0 0 36 29" fill="none"><path d="M35.9824 3.15552C35.1502 3.99859 33.9968 4.51967 32.7192 4.51967C32.5569 4.51967 32.3947 4.51102 32.2375 4.4937C33.5704 3.69218 34.5994 2.43709 35.1122 0.939633C35.1122 0.939633 35.1139 0.939631 35.1139 0.9379C35.1847 0.737086 35.2451 0.534544 35.2934 0.325073C34.2385 1.45552 32.7969 2.22069 31.1791 2.40247C30.9305 2.4319 30.6785 2.44574 30.4229 2.44574C30.3418 2.44574 30.2641 2.44401 30.1864 2.43882C29.6391 1.86234 28.9865 1.38627 28.2631 1.03658C27.4568 0.641873 26.5555 0.409896 25.6042 0.380466C25.5265 0.375273 25.4489 0.373546 25.3677 0.373546C24.5614 0.373546 23.7879 0.517229 23.0732 0.782097C22.8902 0.849612 22.7123 0.922319 22.5379 1.00715C20.2727 2.07181 18.705 4.37945 18.705 7.05409C18.705 7.60287 18.7724 8.13607 18.895 8.64503C18.2009 8.61733 17.5138 8.54981 16.8404 8.44941C16.6246 8.41478 16.4087 8.37843 16.1946 8.33688C14.4768 8.01662 12.8383 7.46611 11.3155 6.71825C9.95332 6.05002 8.68261 5.22599 7.52757 4.26692C6.55553 3.46367 5.6664 2.56692 4.8722 1.58709C4.83767 1.54554 4.80308 1.50226 4.77027 1.46071C4.72366 1.53169 4.6805 1.60267 4.64079 1.67711C4.08485 2.65175 3.77061 3.77874 3.77061 4.98016C3.77061 5.01651 3.77066 5.05633 3.77238 5.09268C3.78619 5.99289 3.97609 6.84981 4.31622 7.62883C4.46125 7.97507 4.63732 8.30226 4.83932 8.61214C5.43497 9.53138 6.2482 10.2966 7.20814 10.8263C7.2513 10.854 7.2962 10.8765 7.34109 10.8973C7.27203 10.9111 7.2012 10.9232 7.13041 10.9302C6.93359 10.9561 6.72986 10.97 6.52613 10.97C5.50403 10.97 4.55273 10.6497 3.77407 10.1044C3.76889 10.1615 3.76893 10.2204 3.76893 10.2792C3.76893 12.187 4.56658 13.9078 5.84421 15.1213C6.83868 16.0734 8.1249 16.7122 9.55446 16.8992C9.03995 17.0879 8.48405 17.19 7.90566 17.19C7.27894 17.19 6.6781 17.0706 6.12907 16.8507C6.94744 19.5184 9.387 21.4747 12.2945 21.5612C10.5179 23.4118 8.02306 24.5613 5.26235 24.5613C3.54619 24.5613 1.93364 24.1164 0.535156 23.3374C3.89669 26.2544 8.28031 28.0167 13.0749 28.0167C23.6705 28.0167 32.2582 19.4059 32.2582 8.78179C32.2582 8.19665 32.2324 7.61845 32.1806 7.04717C33.933 6.35297 35.3228 4.93515 35.9806 3.15725L35.9824 3.15552Z" fill="white"></path></svg>