<svg xmlns="http://www.w3.org/2000/svg" width="125" height="52" viewBox="0 0 125 52" fill="none"><path fill-rule="evenodd" clip-rule="evenodd" d="M58.0578 40.3436V25.3907H65.7753C68.9377 25.3907 71.6069 24.331 73.7829 22.2412L74.3051 21.7113C78.2799 17.3844 78.0188 10.6438 73.7829 6.64068C71.665 4.52136 68.7636 3.3734 65.7753 3.43227H53.3867V40.3436H58.0578ZM58.0583 20.8575V7.96502H65.8931C67.5761 7.96502 69.1721 8.61259 70.3618 9.78999C72.8863 12.2625 72.9444 16.3834 70.5069 18.9442C69.3171 20.2099 67.6341 20.9164 65.8931 20.8575H58.0583ZM96.0942 17.0604C94.0924 15.206 91.3651 14.2641 87.9126 14.2641C83.4736 14.2641 80.1371 15.9125 77.9321 19.1798L82.0519 21.7995C83.5606 19.5624 85.6205 18.4439 88.2317 18.4439C89.8855 18.4439 91.4812 19.062 92.7287 20.1805C93.9473 21.2402 94.6436 22.7708 94.6436 24.3897V25.4788C92.8448 24.478 90.5818 23.9482 87.7965 23.9482C84.5471 23.9482 81.9359 24.7135 79.992 26.2736C78.0481 27.8336 77.0617 29.8941 77.0617 32.5138C77.0037 34.898 78.0191 37.1645 79.8179 38.6951C81.6457 40.3435 83.9668 41.1676 86.694 41.1676C89.9145 41.1676 92.4676 39.7253 94.4115 36.8407H94.6146V40.3435H99.0826V24.7724C99.0826 21.5051 98.0961 18.9148 96.0942 17.0604ZM83.4161 35.6926C82.4586 34.9862 81.8782 33.8382 81.8782 32.6019C81.8782 31.2185 82.5166 30.0705 83.7644 29.1581C85.0411 28.2456 86.6371 27.7746 88.5233 27.7746C91.1348 27.7452 93.1661 28.3339 94.617 29.5113C94.617 31.5129 93.8335 33.2495 92.2956 34.7213C90.9027 36.1341 89.0166 36.9289 87.0434 36.9289C85.7376 36.9583 84.4608 36.5168 83.4161 35.6926ZM109.121 51.4403L124.73 15.0882H119.653L112.428 33.2201H112.341L104.943 15.0882H99.8658L110.107 38.7244L104.305 51.4403H109.121Z" fill="#3C4043"></path><path d="M41.9308 22.153C41.9308 20.7107 41.8148 19.2683 41.5827 17.8555H21.8828V26.0089H33.1689C32.7047 28.6286 31.196 30.9834 28.991 32.4552V37.7535H35.722C39.6678 34.0741 41.9308 28.6286 41.9308 22.153Z" fill="#4285F4"></path><path d="M21.8839 42.875C27.5125 42.875 32.2706 40.9912 35.7232 37.7533L28.9921 32.4551C27.1063 33.7502 24.6982 34.4861 21.8839 34.4861C16.4295 34.4861 11.8164 30.7478 10.1626 25.7439H3.22852V31.2188C6.76811 38.3715 13.9924 42.875 21.8839 42.875Z" fill="#34A853"></path><path d="M10.1632 25.7439C9.29265 23.1242 9.29265 20.269 10.1632 17.6198V12.1744H3.22795C0.239122 18.1497 0.239122 25.214 3.22795 31.1893L10.1632 25.7439Z" fill="#FBBC04"></path><path d="M21.8839 8.87778C24.8723 8.81891 27.7446 9.96687 29.8915 12.0567L35.8682 5.99316C32.0675 2.4021 27.0773 0.42996 21.8839 0.48883C13.9924 0.48883 6.76811 5.0218 3.22852 12.1745L10.1626 17.6494C11.8164 12.616 16.4295 8.87778 21.8839 8.87778Z" fill="#EA4335"></path></svg>