<svg xmlns="http://www.w3.org/2000/svg" width="93" height="94" viewBox="0 0 93 94" fill="none"><path d="M90.2442 18.8787C90.2442 20.9304 89.1127 22.9619 86.9144 24.8574C84.716 26.7528 81.4939 28.4751 77.4318 29.9258C73.3698 31.3765 68.5475 32.5273 63.2402 33.3124C57.9329 34.0976 52.2446 34.5017 46.5 34.5017C34.8984 34.5017 23.7719 32.8557 15.5682 29.9258C7.36461 26.996 2.75586 23.0222 2.75586 18.8787C2.75586 16.8271 3.88734 14.7956 6.08569 12.9001C8.28404 11.0047 11.5062 9.2824 15.5682 7.83167C19.6303 6.38095 24.4526 5.23018 29.7599 4.44505C35.0671 3.65993 40.7555 3.25583 46.5 3.25583C52.2446 3.25583 57.9329 3.65993 63.2402 4.44505C68.5475 5.23018 73.3698 6.38095 77.4318 7.83167C81.4939 9.2824 84.716 11.0047 86.9144 12.9001C89.1127 14.7956 90.2442 16.8271 90.2442 18.8787Z" stroke="white" stroke-width="5" stroke-linecap="round" stroke-linejoin="round"></path><path d="M90.2442 75.1213C90.2442 77.8636 88.2229 80.5577 84.3836 82.9327C80.5442 85.3077 75.0221 87.2799 68.3721 88.6511C61.7222 90.0223 54.1787 90.7442 46.5 90.7442C38.8213 90.7442 31.2779 90.0223 24.6279 88.6511C17.978 87.2799 12.4558 85.3077 8.61646 82.9327C4.77711 80.5577 2.75586 77.8636 2.75586 75.1212" stroke="white" stroke-width="5" stroke-linecap="round" stroke-linejoin="round"></path><path d="M90.2442 56.3737C90.2442 59.1161 88.2229 61.8102 84.3836 64.1852C80.5442 66.5602 75.0221 68.5324 68.3721 69.9036C61.7222 71.2748 54.1787 71.9967 46.5 71.9967C38.8213 71.9967 31.2779 71.2748 24.6279 69.9036C17.978 68.5324 12.4558 66.5602 8.61647 64.1852C4.77711 61.8102 2.75586 59.1161 2.75586 56.3737" stroke="white" stroke-width="5" stroke-linecap="round" stroke-linejoin="round"></path><path d="M90.2442 37.6263C90.2442 40.3686 88.2229 43.0627 84.3836 45.4377C80.5442 47.8127 75.0221 49.7849 68.3721 51.1561C61.7222 52.5273 54.1787 53.2492 46.5 53.2492C38.8213 53.2492 31.2779 52.5273 24.6279 51.1561C17.978 49.7849 12.4558 47.8127 8.61646 45.4377C4.77711 43.0627 2.75586 40.3686 2.75586 37.6263" stroke="white" stroke-width="5" stroke-linecap="round" stroke-linejoin="round"></path><path d="M2.75586 18.8788V75.1213" stroke="white" stroke-width="5" stroke-linecap="round" stroke-linejoin="round"></path><path d="M90.2441 18.8788V75.1213" stroke="white" stroke-width="5" stroke-linecap="round" stroke-linejoin="round"></path></svg>