<svg xmlns="http://www.w3.org/2000/svg" width="41" height="32" viewBox="0 0 41 32" fill="none"><path d="M34.7509 2.80244C32.1784 1.61833 29.4194 0.745821 26.5344 0.247247C26.4826 0.23686 26.429 0.261093 26.4031 0.309566C26.0475 0.94317 25.6555 1.7672 25.3793 2.41638C22.2767 1.9507 19.1897 1.9507 16.1511 2.41638C15.8765 1.75335 15.4691 0.941439 15.1117 0.309566C15.0841 0.262824 15.0323 0.238591 14.9788 0.247247C12.0955 0.745821 9.33651 1.6166 6.76226 2.80244C6.73982 2.81283 6.72082 2.8284 6.70873 2.84917C1.47565 10.6896 0.0409017 18.3361 0.745322 25.8875C0.748775 25.9238 0.76946 25.9602 0.797084 25.9827C4.25013 28.5257 7.59438 30.0682 10.8765 31.0913C10.9283 31.1069 10.9853 31.0879 11.0181 31.0446C11.7951 29.9817 12.4874 28.8599 13.0796 27.6809C13.1141 27.6117 13.0796 27.5303 13.0088 27.5026C11.9107 27.0854 10.8662 26.5765 9.85963 25.9983C9.78021 25.9515 9.77325 25.8373 9.84749 25.7836C10.0599 25.6243 10.2705 25.4599 10.4725 25.2919C10.5088 25.2608 10.5606 25.2556 10.6038 25.2746C17.2112 28.299 24.3624 28.299 30.8921 25.2746C30.9352 25.2539 30.9854 25.2608 31.0233 25.2902C31.2253 25.4564 31.4377 25.6243 31.65 25.7836C31.7226 25.839 31.7191 25.9515 31.6397 25.9983C30.6348 26.5868 29.5886 27.0854 28.4888 27.5009C28.418 27.5286 28.3852 27.6117 28.4197 27.6809C29.0257 28.8581 29.718 29.9799 30.4794 31.0429C30.5105 31.0879 30.5693 31.1069 30.621 31.0913C33.9187 30.0682 37.2647 28.524 40.7177 25.9827C40.7488 25.9602 40.7678 25.9273 40.7695 25.8892C41.612 17.1572 39.359 9.573 34.8009 2.85091C34.7906 2.8284 34.7715 2.81283 34.7491 2.80244H34.7509ZM14.0672 21.2895C12.0782 21.2895 10.4397 19.4579 10.4397 17.2092C10.4397 14.9604 12.0472 13.1288 14.0672 13.1288C16.0872 13.1288 17.7274 14.976 17.6946 17.2092C17.6946 19.4579 16.0872 21.2895 14.0672 21.2895ZM27.4805 21.2895C25.4916 21.2895 23.8531 19.4579 23.8531 17.2092C23.8531 14.9604 25.4605 13.1288 27.4805 13.1288C29.5005 13.1288 31.1407 14.976 31.1079 17.2092C31.1079 19.4579 29.5161 21.2895 27.4805 21.2895Z" fill="white"></path></svg>