<svg xmlns="http://www.w3.org/2000/svg" width="41" height="32" viewBox="0 0 41 32" fill="none"><path d="M34.7509 3.30244C32.1784 2.11833 29.4194 1.24582 26.5344 0.747247C26.4826 0.73686 26.429 0.761093 26.4031 0.809566C26.0475 1.44317 25.6555 2.2672 25.3793 2.91638C22.2767 2.4507 19.1897 2.4507 16.1511 2.91638C15.8765 2.25335 15.4691 1.44144 15.1117 0.809566C15.0841 0.762824 15.0323 0.738591 14.9788 0.747247C12.0955 1.24582 9.33651 2.1166 6.76226 3.30244C6.73982 3.31283 6.72082 3.3284 6.70873 3.34917C1.47565 11.1896 0.0409017 18.8361 0.745322 26.3875C0.748775 26.4238 0.76946 26.4602 0.797084 26.4827C4.25013 29.0257 7.59438 30.5682 10.8765 31.5913C10.9283 31.6069 10.9853 31.5879 11.0181 31.5446C11.7951 30.4817 12.4874 29.3599 13.0796 28.1809C13.1141 28.1117 13.0796 28.0303 13.0088 28.0026C11.9107 27.5854 10.8662 27.0765 9.85963 26.4983C9.78021 26.4515 9.77325 26.3373 9.84749 26.2836C10.0599 26.1243 10.2705 25.9599 10.4725 25.7919C10.5088 25.7608 10.5606 25.7556 10.6038 25.7746C17.2112 28.799 24.3624 28.799 30.8921 25.7746C30.9352 25.7539 30.9854 25.7608 31.0233 25.7902C31.2253 25.9564 31.4377 26.1243 31.65 26.2836C31.7226 26.339 31.7191 26.4515 31.6397 26.4983C30.6348 27.0868 29.5886 27.5854 28.4888 28.0009C28.418 28.0286 28.3852 28.1117 28.4197 28.1809C29.0257 29.3581 29.718 30.4799 30.4794 31.5429C30.5105 31.5879 30.5693 31.6069 30.621 31.5913C33.9187 30.5682 37.2647 29.024 40.7177 26.4827C40.7488 26.4602 40.7678 26.4273 40.7695 26.3892C41.612 17.6572 39.359 10.073 34.8009 3.35091C34.7906 3.3284 34.7715 3.31283 34.7491 3.30244H34.7509ZM14.0672 21.7895C12.0782 21.7895 10.4397 19.9579 10.4397 17.7092C10.4397 15.4604 12.0472 13.6288 14.0672 13.6288C16.0872 13.6288 17.7274 15.476 17.6946 17.7092C17.6946 19.9579 16.0872 21.7895 14.0672 21.7895ZM27.4805 21.7895C25.4916 21.7895 23.8531 19.9579 23.8531 17.7092C23.8531 15.4604 25.4605 13.6288 27.4805 13.6288C29.5005 13.6288 31.1407 15.476 31.1079 17.7092C31.1079 19.9579 29.5161 21.7895 27.4805 21.7895Z" fill="white"></path></svg>