<svg xmlns="http://www.w3.org/2000/svg" width="36" height="29" viewBox="0 0 36 29" fill="none"><path d="M35.9824 3.65552C35.1502 4.49859 33.9968 5.01967 32.7192 5.01967C32.5569 5.01967 32.3947 5.01102 32.2375 4.9937C33.5704 4.19218 34.5994 2.93709 35.1122 1.43963C35.1122 1.43963 35.1139 1.43963 35.1139 1.4379C35.1847 1.23709 35.2451 1.03454 35.2934 0.825073C34.2385 1.95552 32.7969 2.72069 31.1791 2.90247C30.9305 2.9319 30.6785 2.94574 30.4229 2.94574C30.3418 2.94574 30.2641 2.94401 30.1864 2.93882C29.6391 2.36234 28.9865 1.88627 28.2631 1.53658C27.4568 1.14187 26.5555 0.909896 25.6042 0.880466C25.5265 0.875273 25.4489 0.873546 25.3677 0.873546C24.5614 0.873546 23.7879 1.01723 23.0732 1.2821C22.8902 1.34961 22.7123 1.42232 22.5379 1.50715C20.2727 2.57181 18.705 4.87945 18.705 7.55409C18.705 8.10287 18.7724 8.63607 18.895 9.14503C18.2009 9.11733 17.5138 9.04981 16.8404 8.94941C16.6246 8.91478 16.4087 8.87843 16.1946 8.83688C14.4768 8.51662 12.8383 7.96611 11.3155 7.21825C9.95332 6.55002 8.68261 5.72599 7.52757 4.76692C6.55553 3.96367 5.6664 3.06692 4.8722 2.08709C4.83767 2.04554 4.80308 2.00226 4.77027 1.96071C4.72366 2.03169 4.6805 2.10267 4.64079 2.17711C4.08485 3.15175 3.77061 4.27874 3.77061 5.48016C3.77061 5.51651 3.77066 5.55633 3.77238 5.59268C3.78619 6.49289 3.97609 7.34981 4.31622 8.12883C4.46125 8.47507 4.63732 8.80226 4.83932 9.11214C5.43497 10.0314 6.2482 10.7966 7.20814 11.3263C7.2513 11.354 7.2962 11.3765 7.34109 11.3973C7.27203 11.4111 7.2012 11.4232 7.13041 11.4302C6.93359 11.4561 6.72986 11.47 6.52613 11.47C5.50403 11.47 4.55273 11.1497 3.77407 10.6044C3.76889 10.6615 3.76893 10.7204 3.76893 10.7792C3.76893 12.687 4.56658 14.4078 5.84421 15.6213C6.83868 16.5734 8.1249 17.2122 9.55446 17.3992C9.03995 17.5879 8.48405 17.69 7.90566 17.69C7.27894 17.69 6.6781 17.5706 6.12907 17.3507C6.94744 20.0184 9.387 21.9747 12.2945 22.0612C10.5179 23.9118 8.02306 25.0613 5.26235 25.0613C3.54619 25.0613 1.93364 24.6164 0.535156 23.8374C3.89669 26.7544 8.28031 28.5167 13.0749 28.5167C23.6705 28.5167 32.2582 19.9059 32.2582 9.28179C32.2582 8.69665 32.2324 8.11845 32.1806 7.54717C33.933 6.85297 35.3228 5.43515 35.9806 3.65725L35.9824 3.65552Z" fill="white"></path></svg>