<svg xmlns="http://www.w3.org/2000/svg" width="31" height="30" viewBox="0 0 31 30" fill="none"><path d="M15.666 30C13.6016 30 11.6571 29.6056 9.83269 28.8167C8.00825 28.0267 6.41936 26.9544 5.06602 25.6C3.71269 24.2456 2.64047 22.6567 1.84936 20.8333C1.05825 19.01 0.663803 17.0656 0.666025 15C0.666025 12.9289 1.06047 10.9828 1.84936 9.16167C2.63936 7.33944 3.71158 5.75222 5.06602 4.4C6.42047 3.04778 8.00936 1.97556 9.83269 1.18333C11.6571 0.394444 13.6016 0 15.666 0C17.7371 0 19.6832 0.394444 21.5044 1.18333C23.3266 1.97333 24.9144 3.04556 26.2677 4.4C27.621 5.75444 28.6927 7.34167 29.4827 9.16167C30.2716 10.9839 30.666 12.93 30.666 15C30.666 17.0644 30.2716 19.0089 29.4827 20.8333C28.6927 22.6578 27.6205 24.2467 26.266 25.6C24.9116 26.9533 23.3244 28.0256 21.5044 28.8167C19.6844 29.6078 17.7382 30.0022 15.666 30ZM15.666 28.3467C16.6438 27.09 17.4505 25.8561 18.086 24.645C18.7205 23.4339 19.2366 22.0783 19.6344 20.5783H11.6977C12.1388 22.1628 12.6655 23.5606 13.2777 24.7717C13.891 25.9828 14.6871 27.1744 15.666 28.3467ZM13.5444 28.0967C12.7666 27.18 12.0566 26.0467 11.4144 24.6967C10.7721 23.3478 10.2944 21.9744 9.98102 20.5767H3.58936C4.54491 22.6489 5.8988 24.3489 7.65102 25.6767C9.40436 27.0033 11.3688 27.81 13.5444 28.0967ZM17.7877 28.0967C19.9632 27.81 21.9277 27.0033 23.681 25.6767C25.4332 24.3489 26.7871 22.6489 27.7427 20.5767H21.3527C20.9305 21.9956 20.3988 23.3794 19.7577 24.7283C19.1155 26.0783 18.4588 27.2022 17.7877 28.0967ZM2.90936 18.9117H9.63436C9.50769 18.2272 9.4188 17.5606 9.36769 16.9117C9.31436 16.2639 9.28769 15.6267 9.28769 15C9.28769 14.3733 9.3138 13.7361 9.36602 13.0883C9.41825 12.4406 9.50714 11.7739 9.63269 11.0883H2.91103C2.72991 11.6661 2.58825 12.2956 2.48602 12.9767C2.3838 13.6567 2.33269 14.3311 2.33269 15C2.33269 15.6689 2.38325 16.3439 2.48436 17.025C2.58547 17.7061 2.72714 18.3344 2.90936 18.91M11.301 18.91H20.031C20.1577 18.2267 20.2466 17.5711 20.2977 16.9433C20.351 16.3167 20.3777 15.6689 20.3777 15C20.3777 14.3311 20.3516 13.6833 20.2994 13.0567C20.2471 12.43 20.1582 11.7744 20.0327 11.09H11.2994C11.1738 11.7733 11.0849 12.4289 11.0327 13.0567C10.9805 13.6833 10.9544 14.3311 10.9544 15C10.9544 15.6689 10.9805 16.3167 11.0327 16.9433C11.0849 17.57 11.1755 18.2256 11.301 18.91ZM21.6994 18.91H28.4227C28.6038 18.3333 28.7455 17.705 28.8477 17.025C28.9488 16.3439 28.9994 15.6689 28.9994 15C28.9994 14.3311 28.9488 13.6561 28.8477 12.975C28.7466 12.2939 28.6049 11.6656 28.4227 11.09H21.6977C21.8244 11.7733 21.9132 12.4394 21.9644 13.0883C22.0177 13.7372 22.0444 14.3744 22.0444 15C22.0444 15.6256 22.0182 16.2628 21.966 16.9117C21.9138 17.5606 21.8249 18.2272 21.6994 18.9117M21.3527 9.42333H27.7427C26.766 7.30778 25.4282 5.60778 23.7294 4.32333C22.0305 3.03889 20.0499 2.22167 17.7877 1.87167C18.5655 2.895 19.2649 4.06556 19.886 5.38333C20.5071 6.7 20.996 8.04667 21.3527 9.42333ZM11.6977 9.42333H19.6344C19.1944 7.85889 18.6516 6.44444 18.006 5.18C17.3605 3.91556 16.5805 2.74 15.666 1.65333C14.7516 2.73889 13.9716 3.91444 13.326 5.18C12.6805 6.44556 12.1366 7.86 11.6977 9.42333ZM3.59103 9.42333H9.98102C10.3377 8.04778 10.8266 6.70111 11.4477 5.38333C12.0688 4.06556 12.7682 2.895 13.546 1.87167C11.2638 2.22278 9.27825 3.045 7.58936 4.33833C5.90047 5.63389 4.56714 7.32833 3.58936 9.42167" fill="white"></path></svg>