<svg xmlns="http://www.w3.org/2000/svg" width="41" height="32" viewBox="0 0 41 32" fill="none"><path d="M34.7509 3.3025C32.1784 2.11839 29.4194 1.24588 26.5344 0.747308C26.4826 0.736921 26.429 0.761154 26.4031 0.809627C26.0475 1.44323 25.6555 2.26726 25.3793 2.91645C22.2767 2.45076 19.1897 2.45076 16.1511 2.91645C15.8765 2.25341 15.4691 1.4415 15.1117 0.809627C15.0841 0.762886 15.0323 0.738652 14.9788 0.747308C12.0955 1.24588 9.33651 2.11666 6.76226 3.3025C6.73982 3.31289 6.72082 3.32846 6.70873 3.34924C1.47565 11.1897 0.0409017 18.8362 0.745322 26.3875C0.748775 26.4239 0.76946 26.4602 0.797084 26.4827C4.25013 29.0258 7.59438 30.5683 10.8765 31.5914C10.9283 31.607 10.9853 31.5879 11.0181 31.5447C11.7951 30.4817 12.4874 29.3599 13.0796 28.181C13.1141 28.1118 13.0796 28.0304 13.0088 28.0027C11.9107 27.5855 10.8662 27.0765 9.85963 26.4983C9.78021 26.4516 9.77325 26.3373 9.84749 26.2837C10.0599 26.1244 10.2705 25.9599 10.4725 25.792C10.5088 25.7608 10.5606 25.7556 10.6038 25.7747C17.2112 28.799 24.3624 28.799 30.8921 25.7747C30.9352 25.7539 30.9854 25.7608 31.0233 25.7903C31.2253 25.9565 31.4377 26.1244 31.65 26.2837C31.7226 26.3391 31.7191 26.4516 31.6397 26.4983C30.6348 27.0869 29.5886 27.5855 28.4888 28.001C28.418 28.0287 28.3852 28.1118 28.4197 28.181C29.0257 29.3582 29.718 30.48 30.4794 31.5429C30.5105 31.5879 30.5693 31.607 30.621 31.5914C33.9187 30.5683 37.2647 29.0241 40.7177 26.4827C40.7488 26.4602 40.7678 26.4273 40.7695 26.3893C41.612 17.6573 39.359 10.0731 34.8009 3.35097C34.7906 3.32846 34.7715 3.31289 34.7491 3.3025H34.7509ZM14.0672 21.7896C12.0782 21.7896 10.4397 19.958 10.4397 17.7092C10.4397 15.4604 12.0472 13.6289 14.0672 13.6289C16.0872 13.6289 17.7274 15.476 17.6946 17.7092C17.6946 19.958 16.0872 21.7896 14.0672 21.7896ZM27.4805 21.7896C25.4916 21.7896 23.8531 19.958 23.8531 17.7092C23.8531 15.4604 25.4605 13.6289 27.4805 13.6289C29.5005 13.6289 31.1407 15.476 31.1079 17.7092C31.1079 19.958 29.5161 21.7896 27.4805 21.7896Z" fill="white"></path></svg>