<svg xmlns="http://www.w3.org/2000/svg" width="182" height="44" viewBox="0 0 182 44" fill="none"><path fill-rule="evenodd" clip-rule="evenodd" d="M87.5433 12.8015C89.2482 10.6887 91.9002 8.94012 95.0476 8.94012C102.144 8.94012 107.725 14.8124 107.725 22.0544C107.725 29.6024 102.115 35.1832 95.3828 35.1832C91.7982 35.1832 89.0588 33.3472 88.0533 31.8172H87.9513V42.9061C87.9513 42.9061 87.9222 43.0372 87.8785 43.0809C87.8348 43.1246 87.7619 43.1538 87.7036 43.1538H81.3942C81.3942 43.1538 81.2631 43.1246 81.2193 43.0809C81.1756 43.0372 81.1465 42.9644 81.1465 42.9061V9.20241C81.1465 9.20241 81.1756 9.07127 81.2193 9.02755C81.2631 8.98384 81.3359 8.9547 81.3942 8.9547H87.2956C87.2956 8.9547 87.4268 8.98384 87.4705 9.02755C87.5142 9.07127 87.5433 9.14412 87.5433 9.20241V12.8161V12.8015ZM94.5085 28.7572C93.9839 28.7718 93.4593 28.7281 92.9348 28.6261C91.6379 28.3492 90.443 27.7081 89.5105 26.7464C88.5779 25.7992 87.9513 24.5898 87.7182 23.2784C87.6453 22.8995 87.6162 22.5207 87.6016 22.1418C87.6016 21.7192 87.6308 21.2967 87.7036 20.8741C87.9368 19.5627 88.5633 18.3533 89.4959 17.4061C90.4285 16.459 91.6088 15.8033 92.9202 15.5264C93.4448 15.4098 93.9693 15.3661 94.4939 15.3807C95.3536 15.3807 96.1987 15.5701 96.9856 15.9053C97.787 16.2404 98.501 16.7358 99.113 17.3624C99.725 17.989 100.191 18.7175 100.512 19.519C100.832 20.3204 100.993 21.1801 100.978 22.0544C100.978 22.9287 100.832 23.7884 100.512 24.5898C100.191 25.3912 99.7105 26.1344 99.113 26.761C98.501 27.3875 97.787 27.883 96.9856 28.2181C96.1987 28.5532 95.3536 28.7427 94.5085 28.7572Z" fill="#5A31F4"></path><path d="M46.569 13.9965C45.1119 10.9365 42.3433 8.96933 38.1759 8.96933C36.8936 8.99848 35.6404 9.30447 34.5039 9.88733C33.3673 10.4702 32.3764 11.3153 31.6187 12.3353L31.473 12.5248V0.532488C31.473 0.532488 31.4439 0.401345 31.4002 0.34306C31.3564 0.299345 31.2836 0.270203 31.2107 0.270203H25.3239C25.3239 0.270203 25.1927 0.299345 25.149 0.34306C25.1053 0.386774 25.0762 0.459631 25.0762 0.532488V34.921C25.0762 34.921 25.1053 35.0522 25.149 35.0959C25.1927 35.1396 25.2656 35.1687 25.3239 35.1687H31.6333C31.6333 35.1687 31.7644 35.1396 31.8227 35.0959C31.8664 35.0522 31.8956 34.9793 31.8956 34.921V20.2622C31.8956 17.4062 33.7899 15.3953 36.8353 15.3953C40.1576 15.3953 41.0027 18.1347 41.0027 20.9179V34.921C41.0027 34.921 41.0319 35.0522 41.0756 35.0959C41.1193 35.1396 41.1922 35.1687 41.2504 35.1687H47.5453C47.5453 35.1687 47.6764 35.1396 47.7347 35.0959C47.7784 35.0522 47.8076 34.9793 47.8076 34.921V20.0727C47.8076 19.5627 47.8076 19.0673 47.7347 18.5865C47.6327 16.9982 47.2247 15.439 46.569 13.9965Z" fill="#5A31F4"></path><path d="M15.0796 19.0966C15.0796 19.0966 11.8739 18.3389 10.6936 18.0329C9.51333 17.7269 7.44419 17.0858 7.44419 15.5266C7.44419 13.9675 9.10533 13.4721 10.7956 13.4721C12.4859 13.4721 14.3656 13.8801 14.5113 15.7598C14.5113 15.8326 14.555 15.8909 14.5988 15.9346C14.6425 15.9783 14.7153 16.0075 14.7882 16.0075L21.0102 15.9783C21.0102 15.9783 21.083 15.9783 21.1122 15.9492C21.1413 15.9346 21.1705 15.9201 21.1996 15.8909C21.2287 15.8618 21.2433 15.8326 21.2579 15.8035C21.2579 15.7743 21.2725 15.7306 21.2579 15.7015C20.879 9.69807 15.6042 7.55607 10.7519 7.55607C4.99619 7.52693 0.785057 11.3301 0.785057 15.5266C0.785057 18.5866 1.64477 21.4572 8.44962 23.4535C9.64447 23.8032 11.2619 24.2549 12.6753 24.6483C14.3802 25.1292 15.2982 25.8432 15.2982 26.9652C15.2982 28.2766 13.4039 29.1946 11.5388 29.1946C8.84305 29.1946 6.91962 28.1892 6.75933 26.3969C6.75933 26.324 6.71562 26.2658 6.67191 26.222C6.62819 26.1783 6.55533 26.1492 6.49705 26.1492L0.289629 26.1783C0.289629 26.1783 0.216772 26.1783 0.187629 26.1929C0.158486 26.1929 0.129344 26.222 0.100201 26.2512C0.071058 26.2803 0.0564866 26.3095 0.0419152 26.3386C0.0419152 26.3678 0.0273438 26.4115 0.0273438 26.4406C0.318772 32.1089 5.78305 35.1543 10.883 35.1543C18.4747 35.1543 21.9136 30.8849 21.9136 26.8778C21.9136 24.998 21.491 20.7141 15.1088 19.0821L15.0796 19.0966Z" fill="#5A31F4"></path><path d="M62.4664 7.46851C56.5795 7.46851 53.6507 9.46479 51.2901 11.0676L51.2172 11.1114C51.1007 11.1988 51.0132 11.3154 50.9841 11.4611C50.9549 11.6068 50.9841 11.7525 51.0424 11.8836L53.3738 15.8908C53.4175 15.9636 53.4758 16.0365 53.5487 16.0802C53.6215 16.1239 53.7089 16.1676 53.7818 16.1822C53.8692 16.1968 53.9567 16.1822 54.0295 16.1822C54.1169 16.1531 54.1898 16.1239 54.2481 16.0656L54.4375 15.9199C55.6469 14.8999 57.5849 13.5448 62.2915 13.1805C64.9144 12.9765 67.1729 13.6614 68.8341 15.2059C70.6701 16.8962 71.7629 19.6211 71.7629 22.5062C71.7629 27.8102 68.6446 31.147 63.6175 31.2053C59.4792 31.1762 56.6961 29.0196 56.6961 25.843C56.6961 24.1528 57.4538 23.0453 58.9546 21.9525C59.0712 21.8651 59.1441 21.7485 59.1878 21.6173C59.2169 21.4862 59.1878 21.3405 59.1295 21.2093L57.0458 17.2605C57.0458 17.2605 56.9584 17.1293 56.8855 17.0711C56.8272 17.0273 56.7544 16.9836 56.6669 16.9545C56.5941 16.9253 56.5067 16.9253 56.4192 16.9399C56.3318 16.9399 56.2589 16.9836 56.1861 17.0273C53.8401 18.4116 50.9549 20.9616 51.1152 25.8576C51.3047 32.0796 56.4775 36.8445 63.2095 37.0339H64.0109C72.0106 36.7716 77.7809 30.841 77.7809 22.7831C77.7809 15.3954 72.3895 7.48308 62.4372 7.48308L62.4664 7.46851Z" fill="#5A31F4"></path><path fill-rule="evenodd" clip-rule="evenodd" d="M120.736 0.357849H174.592C178.308 0.357849 181.324 3.37413 181.324 7.08984V36.5678C181.324 40.2835 178.308 43.2998 174.592 43.2998H120.736C117.02 43.2998 114.004 40.2835 114.004 36.5678V7.08984C114.004 3.37413 117.02 0.357849 120.736 0.357849ZM132.816 23.7158C137.304 23.7158 140.524 20.4372 140.524 15.8473C140.524 11.2573 137.304 7.9787 132.816 7.9787H124.889C124.801 7.9787 124.699 8.02241 124.641 8.0807C124.568 8.15355 124.539 8.24098 124.539 8.32841V30.0981C124.539 30.1855 124.583 30.2875 124.641 30.3458C124.714 30.4187 124.801 30.4478 124.889 30.4478H127.876C127.963 30.4478 128.065 30.4041 128.124 30.3458C128.196 30.2729 128.226 30.1855 128.226 30.0981V24.0655C128.226 23.9781 128.269 23.8761 128.328 23.8178C128.4 23.745 128.488 23.7158 128.575 23.7158H132.816ZM132.582 11.2864C135.03 11.2864 136.823 13.2098 136.823 15.8473C136.823 18.4847 135.016 20.4081 132.582 20.4081H128.575C128.488 20.4081 128.386 20.3644 128.328 20.3061C128.255 20.2332 128.226 20.1458 128.226 20.0584V11.6507C128.226 11.5633 128.269 11.4613 128.328 11.403C128.4 11.3301 128.488 11.301 128.575 11.301H132.582V11.2864ZM141.398 26.2804C141.369 25.581 141.515 24.8815 141.821 24.2404C142.127 23.5992 142.593 23.0601 143.161 22.6521C144.327 21.7778 146.119 21.3261 148.786 21.2241L151.613 21.1221V20.2915C151.613 18.6304 150.491 17.9164 148.698 17.9164C146.906 17.9164 145.77 18.5575 145.493 19.5921C145.478 19.665 145.42 19.7232 145.362 19.7815C145.303 19.8253 145.23 19.8544 145.143 19.8398H142.36C142.36 19.8398 142.258 19.8398 142.214 19.8107C142.17 19.7961 142.127 19.7524 142.098 19.7232C142.068 19.6795 142.039 19.6358 142.025 19.5921C142.025 19.5484 142.01 19.4901 142.025 19.4464C142.447 16.9838 144.487 15.1041 148.844 15.1041C153.463 15.1041 155.139 17.2607 155.139 21.3698V30.0981C155.139 30.0981 155.139 30.1855 155.11 30.2292C155.095 30.2729 155.066 30.3167 155.037 30.3458C155.008 30.375 154.964 30.4041 154.92 30.4187C154.877 30.4332 154.833 30.4478 154.789 30.4478H151.977C151.977 30.4478 151.89 30.4478 151.846 30.4187C151.802 30.4041 151.758 30.375 151.729 30.3458C151.7 30.3167 151.671 30.2729 151.656 30.2292C151.642 30.1855 151.627 30.1418 151.627 30.0981V29.4424C151.627 29.4424 151.627 29.3258 151.584 29.2821C151.554 29.2384 151.511 29.1947 151.452 29.1801C151.394 29.1655 151.336 29.151 151.292 29.1801C151.248 29.2092 151.19 29.2238 151.146 29.2675C150.301 30.1855 148.932 30.8558 146.76 30.8558C143.569 30.8558 141.442 29.1947 141.442 26.3095L141.398 26.2804ZM151.613 24.3861V23.7158L147.955 23.9052C146.032 24.0072 144.895 24.8087 144.895 26.1492C144.895 27.3732 145.93 28.0435 147.722 28.0435C150.17 28.0435 151.613 26.7175 151.613 24.3861ZM157.937 34.5132V37.0487C157.937 37.1361 157.951 37.2089 158.01 37.2818C158.053 37.3547 158.126 37.3984 158.199 37.4275C158.694 37.5587 159.204 37.6315 159.729 37.6169C162.454 37.6169 164.946 36.6261 166.374 32.7355L172.639 16.0075C172.639 16.0075 172.668 15.891 172.639 15.8473C172.639 15.789 172.61 15.7307 172.581 15.687C172.552 15.6433 172.508 15.5995 172.45 15.5704C172.392 15.5413 172.348 15.5267 172.29 15.5267H169.375C169.302 15.5267 169.23 15.5558 169.171 15.5995C169.113 15.6433 169.069 15.7015 169.04 15.7744L165.587 26.3678C165.587 26.3678 165.514 26.499 165.456 26.5427C165.397 26.5864 165.324 26.601 165.252 26.601C165.179 26.601 165.106 26.5718 165.048 26.5427C164.989 26.499 164.946 26.4407 164.916 26.3678L160.938 15.7453C160.938 15.7453 160.866 15.6141 160.807 15.5704C160.749 15.5267 160.676 15.5121 160.603 15.5121H157.747C157.747 15.5121 157.631 15.5267 157.587 15.5558C157.543 15.585 157.5 15.6141 157.456 15.6724C157.427 15.7161 157.398 15.7744 157.398 15.8327C157.398 15.891 157.398 15.9493 157.412 15.993L163.27 31.0452C163.299 31.1181 163.299 31.2055 163.27 31.2929L163.08 31.8758C162.862 32.6044 162.41 33.2309 161.798 33.6681C161.186 34.1052 160.428 34.3238 159.685 34.2801C159.248 34.2801 158.811 34.2364 158.374 34.1635C158.316 34.1635 158.272 34.1635 158.214 34.1635C158.155 34.1635 158.112 34.2072 158.068 34.2364C158.024 34.2655 157.995 34.3092 157.966 34.3675C157.937 34.4112 157.937 34.4695 157.937 34.5278V34.5132Z" fill="#5A31F4"></path></svg>