<svg xmlns="http://www.w3.org/2000/svg" width="18" height="28" viewBox="0 0 18 28" fill="none"><path fill-rule="evenodd" clip-rule="evenodd" d="M9.00077 0.874058C8.75213 0.874058 8.51367 0.972828 8.33786 1.14864C8.16204 1.32446 8.06327 1.56292 8.06327 1.81156L8.06327 23.9234L2.16452 18.0228C1.98848 17.8468 1.74972 17.7479 1.50077 17.7479C1.25181 17.7479 1.01306 17.8468 0.837019 18.0228C0.660982 18.1988 0.562086 18.4376 0.562086 18.6866C0.562086 18.9355 0.660982 19.1743 0.837019 19.3503L8.33702 26.8503C8.4241 26.9376 8.52756 27.0069 8.64146 27.0541C8.75535 27.1014 8.87746 27.1257 9.00077 27.1257C9.12408 27.1257 9.24618 27.1014 9.36008 27.0541C9.47398 27.0069 9.57743 26.9376 9.66452 26.8503L17.1645 19.3503C17.2517 19.2631 17.3208 19.1597 17.368 19.0458C17.4152 18.9319 17.4395 18.8098 17.4395 18.6866C17.4395 18.4376 17.3406 18.1988 17.1645 18.0228C16.9885 17.8468 16.7497 17.7479 16.5008 17.7479C16.2518 17.7479 16.0131 17.8468 15.837 18.0228L9.93827 23.9234L9.93827 1.81156C9.93827 1.56292 9.8395 1.32446 9.66368 1.14864C9.48787 0.972828 9.24941 0.874058 9.00077 0.874058Z" fill="#F8F8F8"></path></svg>