<svg xmlns="http://www.w3.org/2000/svg" width="160" height="37" viewBox="0 0 160 37" fill="none"><path d="M154.52 27.2328C152.021 27.2423 150.003 29.2757 150.012 31.7747C150.012 31.7779 150.012 31.7804 150.012 31.7829C149.998 34.2819 152.012 36.3191 154.511 36.3331C154.514 36.3331 154.517 36.3331 154.519 36.3331C157.005 36.3331 159.027 34.2946 159.027 31.7829C159.041 29.284 157.027 27.2468 154.528 27.2328C154.526 27.2328 154.522 27.2328 154.52 27.2328ZM139.685 23.7187C139.685 20.2764 136.771 17.4897 133.176 17.4897C129.581 17.4897 126.668 20.2809 126.668 23.7187C126.668 27.1566 129.586 29.944 133.18 29.944C136.774 29.944 139.684 27.1572 139.684 23.7187H139.685ZM139.71 11.6112H146.891V35.8217H139.71V34.2737C137.616 35.7188 135.133 36.4919 132.589 36.4894C125.598 36.4894 119.932 30.7717 119.932 23.7181C119.932 16.6645 125.598 10.9468 132.589 10.9468C135.232 10.9468 137.68 11.7631 139.71 13.1625V11.6106V11.6112ZM82.2308 14.7658V11.6151H74.8767V35.8211H82.2479V24.5172C82.2479 20.7026 86.3413 18.6559 89.1833 18.6559H89.2678V11.6151C86.3496 11.6151 83.6727 12.8754 82.2308 14.7658ZM63.9114 23.7187C63.9114 20.2764 60.9976 17.4897 57.4028 17.4897C53.8081 17.4897 50.8943 20.2809 50.8943 23.7187C50.8943 27.1566 53.8125 29.944 57.4066 29.944C61.0008 29.944 63.9108 27.1572 63.9108 23.7187H63.9114ZM63.9368 11.6112H71.1219V35.8217H63.9368V34.2737C61.9066 35.6693 59.4584 36.4894 56.8152 36.4894C49.8245 36.4894 44.1583 30.7717 44.1583 23.7181C44.1583 16.6645 49.8252 10.9468 56.8152 10.9468C59.4584 10.9468 61.9066 11.7631 63.9368 13.1625V11.6106V11.6112ZM107.169 10.9639C104.302 10.9639 101.587 11.8603 99.7688 14.3389V11.6157H92.618V35.8217H99.8577V23.1013C99.8577 19.422 102.302 17.6161 105.25 17.6161C108.404 17.6161 110.223 19.5192 110.223 23.0505V35.8217H117.395V20.4282C117.395 14.795 112.955 10.9639 107.17 10.9639H107.169ZM33.6961 35.8217H41.2153V0.827594H33.6961V35.8217ZM0.668604 35.83H8.63184V0.819336H0.672415L0.667969 35.8306L0.668604 35.83ZM28.5196 0.819336C28.5196 8.39762 25.5931 15.4512 20.3747 20.6912L31.3781 35.8306H21.546L9.59103 19.3801L12.6782 17.0456C17.7741 13.2127 20.7571 7.19577 20.7215 0.819336H28.5196Z" fill="#0A0B09"></path></svg>