<svg xmlns="http://www.w3.org/2000/svg" width="36" height="35" viewBox="0 0 36 35" fill="none"><path d="M2.14155 7.47083C1.34218 6.72643 0.943359 5.80546 0.943359 4.70963C0.943359 3.61381 1.34218 2.65129 2.14155 1.90689C2.94093 1.1625 3.96992 0.790283 5.23201 0.790283C6.4941 0.790283 7.48169 1.1625 8.27934 1.90689C9.07872 2.65129 9.47754 3.58611 9.47754 4.70963C9.47754 5.83316 9.07872 6.72643 8.27934 7.47083C7.47996 8.21522 6.46475 8.58744 5.23201 8.58744C3.99927 8.58744 2.94093 8.21522 2.14155 7.47083ZM8.80417 11.7399V34.5514H1.61669V11.7399H8.80417Z" fill="white"></path><path d="M32.7358 13.9921C34.3017 15.6973 35.0856 18.0395 35.0856 21.0206V34.1497H28.2572V21.9468C28.2572 20.4441 27.8687 19.2756 27.0918 18.4429C26.3149 17.6102 25.2703 17.1947 23.9581 17.1947C22.646 17.1947 21.6015 17.6119 20.8245 18.4429C20.0476 19.2756 19.6591 20.4441 19.6591 21.9468V34.1497H12.791V11.6775H19.6591V14.6586C20.3549 13.6649 21.2924 12.8807 22.4716 12.3025C23.6491 11.726 24.9751 11.4369 26.4478 11.4369C29.0721 11.4369 31.1681 12.2904 32.7341 13.9938L32.7358 13.9921Z" fill="white"></path></svg>