<svg xmlns="http://www.w3.org/2000/svg" width="31" height="30" viewBox="0 0 31 30" fill="none"><path d="M15.668 30C13.6035 30 11.6591 29.6056 9.83464 28.8167C8.0102 28.0267 6.42131 26.9544 5.06798 25.6C3.71464 24.2456 2.64242 22.6567 1.85131 20.8333C1.0602 19.01 0.665756 17.0656 0.667978 15C0.667978 12.9289 1.06242 10.9828 1.85131 9.16167C2.64131 7.33944 3.71353 5.75222 5.06798 4.4C6.42242 3.04778 8.01131 1.97556 9.83464 1.18333C11.6591 0.394444 13.6035 0 15.668 0C17.7391 0 19.6852 0.394444 21.5063 1.18333C23.3285 1.97333 24.9163 3.04556 26.2696 4.4C27.623 5.75444 28.6946 7.34167 29.4846 9.16167C30.2735 10.9839 30.668 12.93 30.668 15C30.668 17.0644 30.2735 19.0089 29.4846 20.8333C28.6946 22.6578 27.6224 24.2467 26.268 25.6C24.9135 26.9533 23.3263 28.0256 21.5063 28.8167C19.6863 29.6078 17.7402 30.0022 15.668 30ZM15.668 28.3467C16.6458 27.09 17.4524 25.8561 18.088 24.645C18.7224 23.4339 19.2385 22.0783 19.6363 20.5783H11.6996C12.1408 22.1628 12.6674 23.5606 13.2796 24.7717C13.893 25.9828 14.6891 27.1744 15.668 28.3467ZM13.5463 28.0967C12.7685 27.18 12.0585 26.0467 11.4163 24.6967C10.7741 23.3478 10.2963 21.9744 9.98298 20.5767H3.59131C4.54687 22.6489 5.90076 24.3489 7.65298 25.6767C9.40631 27.0033 11.3708 27.81 13.5463 28.0967ZM17.7896 28.0967C19.9652 27.81 21.9296 27.0033 23.683 25.6767C25.4352 24.3489 26.7891 22.6489 27.7446 20.5767H21.3546C20.9324 21.9956 20.4008 23.3794 19.7596 24.7283C19.1174 26.0783 18.4608 27.2022 17.7896 28.0967ZM2.91131 18.9117H9.63631C9.50964 18.2272 9.42076 17.5606 9.36964 16.9117C9.31631 16.2639 9.28965 15.6267 9.28965 15C9.28965 14.3733 9.31576 13.7361 9.36798 13.0883C9.4202 12.4406 9.50909 11.7739 9.63464 11.0883H2.91298C2.73187 11.6661 2.5902 12.2956 2.48798 12.9767C2.38576 13.6567 2.33464 14.3311 2.33464 15C2.33464 15.6689 2.3852 16.3439 2.48631 17.025C2.58742 17.7061 2.72909 18.3344 2.91131 18.91M11.303 18.91H20.033C20.1596 18.2267 20.2485 17.5711 20.2996 16.9433C20.353 16.3167 20.3796 15.6689 20.3796 15C20.3796 14.3311 20.3535 13.6833 20.3013 13.0567C20.2491 12.43 20.1602 11.7744 20.0346 11.09H11.3013C11.1758 11.7733 11.0869 12.4289 11.0346 13.0567C10.9824 13.6833 10.9563 14.3311 10.9563 15C10.9563 15.6689 10.9824 16.3167 11.0346 16.9433C11.0869 17.57 11.1774 18.2256 11.303 18.91ZM21.7013 18.91H28.4246C28.6058 18.3333 28.7474 17.705 28.8496 17.025C28.9508 16.3439 29.0013 15.6689 29.0013 15C29.0013 14.3311 28.9508 13.6561 28.8496 12.975C28.7485 12.2939 28.6069 11.6656 28.4246 11.09H21.6996C21.8263 11.7733 21.9152 12.4394 21.9663 13.0883C22.0196 13.7372 22.0463 14.3744 22.0463 15C22.0463 15.6256 22.0202 16.2628 21.968 16.9117C21.9158 17.5606 21.8269 18.2272 21.7013 18.9117M21.3546 9.42333H27.7446C26.768 7.30778 25.4302 5.60778 23.7313 4.32333C22.0324 3.03889 20.0519 2.22167 17.7896 1.87167C18.5674 2.895 19.2669 4.06556 19.888 5.38333C20.5091 6.7 20.998 8.04667 21.3546 9.42333ZM11.6996 9.42333H19.6363C19.1963 7.85889 18.6535 6.44444 18.008 5.18C17.3624 3.91556 16.5824 2.74 15.668 1.65333C14.7535 2.73889 13.9735 3.91444 13.328 5.18C12.6824 6.44556 12.1385 7.86 11.6996 9.42333ZM3.59298 9.42333H9.98298C10.3396 8.04778 10.8285 6.70111 11.4496 5.38333C12.0708 4.06556 12.7702 2.895 13.548 1.87167C11.2658 2.22278 9.2802 3.045 7.59131 4.33833C5.90242 5.63389 4.56909 7.32833 3.59131 9.42167" fill="white"></path></svg>