<svg xmlns="http://www.w3.org/2000/svg" width="98" height="61" viewBox="0 0 98 61" fill="none"><path d="M59.1187 30.5989C59.1187 46.9711 45.9986 60.2435 29.8142 60.2435C13.6298 60.2435 0.509766 46.9711 0.509766 30.5989C0.509766 14.2266 13.6298 0.954224 29.8142 0.954224C45.9986 0.954224 59.1187 14.2266 59.1187 30.5989Z" fill="#ED0006"></path><path d="M97.1343 30.5989C97.1343 46.9711 84.0142 60.2435 67.8298 60.2435C51.6454 60.2435 38.5254 46.9711 38.5254 30.5989C38.5254 14.2266 51.6454 0.954224 67.8298 0.954224C84.0142 0.954224 97.1343 14.2266 97.1343 30.5989Z" fill="#0099DF"></path><path fill-rule="evenodd" clip-rule="evenodd" d="M48.8233 53.1617C55.1241 47.7243 59.1194 39.6336 59.1194 30.5989C59.1194 21.5642 55.1241 13.4734 48.8233 8.03607C42.5226 13.4734 38.5273 21.5642 38.5273 30.5989C38.5273 39.6336 42.5226 47.7243 48.8233 53.1617Z" fill="#6C6BBD"></path></svg>