<svg xmlns="http://www.w3.org/2000/svg" width="36" height="35" viewBox="0 0 36 35" fill="none"><path d="M2.1396 6.97083C1.34022 6.22643 0.941406 5.30546 0.941406 4.20963C0.941406 3.11381 1.34022 2.15129 2.1396 1.40689C2.93898 0.662495 3.96797 0.290283 5.23006 0.290283C6.49214 0.290283 7.47974 0.662495 8.27739 1.40689C9.07677 2.15129 9.47559 3.08611 9.47559 4.20963C9.47559 5.33316 9.07677 6.22643 8.27739 6.97083C7.47801 7.71522 6.46279 8.08744 5.23006 8.08744C3.99732 8.08744 2.93898 7.71522 2.1396 6.97083ZM8.80222 11.2399V34.0514H1.61473V11.2399H8.80222Z" fill="white"></path><path d="M32.7338 13.4922C34.2998 15.1974 35.0836 17.5397 35.0836 20.5207V33.6498H28.2552V21.4469C28.2552 19.9443 27.8668 18.7757 27.0898 17.943C26.3129 17.1103 25.2683 16.6949 23.9562 16.6949C22.644 16.6949 21.5995 17.1121 20.8226 17.943C20.0456 18.7757 19.6572 19.9443 19.6572 21.4469V33.6498H12.7891V11.1776H19.6572V14.1587C20.353 13.165 21.2905 12.3808 22.4697 11.8026C23.6472 11.2261 24.9731 10.937 26.4459 10.937C29.0702 10.937 31.1662 11.7905 32.7321 13.4939L32.7338 13.4922Z" fill="white"></path></svg>