<svg xmlns="http://www.w3.org/2000/svg" width="40" height="39" viewBox="0 0 40 39" fill="none"><path d="M25.6839 28.0708C17.9163 28.0691 11.5955 21.7313 11.5938 13.9446C11.5972 11.971 13.1977 10.3645 15.1642 10.3645C15.3662 10.3645 15.5665 10.3818 15.7564 10.4164C16.1777 10.4857 16.5765 10.6294 16.946 10.844C16.9995 10.8752 17.0358 10.9271 17.0444 10.9877L17.8645 16.176C17.8748 16.2366 17.8558 16.2972 17.8161 16.3422C17.3621 16.846 16.7837 17.2078 16.1414 17.3896L15.8306 17.4778L15.948 17.7791C17.0081 20.4814 19.1628 22.6436 21.8596 23.7066L22.16 23.8243L22.2481 23.5127C22.4294 22.867 22.7902 22.287 23.2927 21.8334C23.3289 21.8005 23.3773 21.7815 23.4273 21.7815C23.4377 21.7815 23.4498 21.7815 23.4601 21.785L28.6328 22.6073C28.6949 22.6176 28.745 22.6523 28.7778 22.706C28.9902 23.0764 29.1335 23.4781 29.2043 23.8987C29.2371 24.0874 29.2543 24.2848 29.2543 24.4925C29.2543 26.4643 27.6521 28.0691 25.6839 28.0725V28.0708Z" fill="white"></path><path d="M39.4596 17.4605C39.0401 12.7136 36.8716 8.3113 33.3529 5.06538C29.8135 1.79868 25.2193 0 20.4161 0C9.87397 0 1.29662 8.6004 1.29662 19.1709C1.29662 22.718 2.27208 26.1751 4.11945 29.1856L0 38.3314L13.1941 36.9222C15.4886 37.8639 17.9178 38.3417 20.4161 38.3417C21.0739 38.3417 21.7472 38.3071 22.4223 38.2379C23.018 38.1738 23.6188 38.0803 24.211 37.9609C33.0404 36.1726 39.4855 28.3148 39.5356 19.273V19.1709C39.5356 18.5944 39.5097 18.0196 39.4579 17.4622L39.4596 17.4605ZM13.6999 32.9076L6.40022 33.6866L8.5808 28.8446L8.14571 28.2577C8.11291 28.2144 8.08182 28.1712 8.04556 28.1227C6.1533 25.5035 5.15364 22.4081 5.15364 19.1691C5.15364 10.7297 12.001 3.86567 20.4161 3.86567C28.3011 3.86567 34.9827 10.0338 35.6267 17.9071C35.6613 18.3295 35.6785 18.7537 35.6785 19.1709C35.6785 19.2903 35.6768 19.408 35.6734 19.5327C35.5111 26.5923 30.5922 32.5874 23.7121 34.1143C23.1872 34.232 22.6485 34.3202 22.1116 34.3791C21.5539 34.4432 20.9824 34.4743 20.4144 34.4743C18.3926 34.4743 16.4278 34.0814 14.5701 33.3058C14.3646 33.2227 14.1626 33.1344 13.9727 33.0427L13.6965 32.9094L13.6999 32.9076Z" fill="white"></path></svg>