<svg xmlns="http://www.w3.org/2000/svg" width="36" height="29" viewBox="0 0 36 29" fill="none"><path d="M35.9824 3.15549C35.1502 3.99856 33.9968 4.51964 32.7192 4.51964C32.5569 4.51964 32.3947 4.51099 32.2375 4.49367C33.5704 3.69215 34.5994 2.43706 35.1122 0.939602C35.1122 0.939602 35.1139 0.939601 35.1139 0.93787C35.1847 0.737055 35.2451 0.534513 35.2934 0.325043C34.2385 1.45549 32.7969 2.22066 31.1791 2.40244C30.9305 2.43186 30.6785 2.44571 30.4229 2.44571C30.3418 2.44571 30.2641 2.44398 30.1864 2.43879C29.6391 1.86231 28.9865 1.38624 28.2631 1.03655C27.4568 0.641843 26.5555 0.409866 25.6042 0.380436C25.5265 0.375242 25.4489 0.373515 25.3677 0.373515C24.5614 0.373515 23.7879 0.517199 23.0732 0.782066C22.8902 0.849582 22.7123 0.922288 22.5379 1.00712C20.2727 2.07178 18.705 4.37942 18.705 7.05406C18.705 7.60284 18.7724 8.13604 18.895 8.645C18.2009 8.6173 17.5138 8.54978 16.8404 8.44938C16.6246 8.41475 16.4087 8.3784 16.1946 8.33685C14.4768 8.01659 12.8383 7.46608 11.3155 6.71822C9.95332 6.04999 8.68261 5.22596 7.52757 4.26689C6.55553 3.46363 5.6664 2.56689 4.8722 1.58705C4.83767 1.54551 4.80308 1.50223 4.77027 1.46068C4.72366 1.53166 4.6805 1.60264 4.64079 1.67708C4.08485 2.65172 3.77061 3.7787 3.77061 4.98013C3.77061 5.01648 3.77066 5.0563 3.77238 5.09265C3.78619 5.99286 3.97609 6.84978 4.31622 7.6288C4.46125 7.97504 4.63732 8.30223 4.83932 8.61211C5.43497 9.53135 6.2482 10.2965 7.20814 10.8263C7.2513 10.854 7.2962 10.8765 7.34109 10.8972C7.27203 10.9111 7.2012 10.9232 7.13041 10.9301C6.93359 10.9561 6.72986 10.9699 6.52613 10.9699C5.50403 10.9699 4.55273 10.6497 3.77407 10.1044C3.76889 10.1615 3.76893 10.2204 3.76893 10.2792C3.76893 12.187 4.56658 13.9077 5.84421 15.1213C6.83868 16.0734 8.1249 16.7122 9.55446 16.8992C9.03995 17.0879 8.48405 17.19 7.90566 17.19C7.27894 17.19 6.6781 17.0706 6.12907 16.8507C6.94744 19.5184 9.387 21.4746 12.2945 21.5612C10.5179 23.4118 8.02306 24.5613 5.26235 24.5613C3.54619 24.5613 1.93364 24.1164 0.535156 23.3373C3.89669 26.2544 8.28031 28.0167 13.0749 28.0167C23.6705 28.0167 32.2582 19.4059 32.2582 8.78176C32.2582 8.19662 32.2324 7.61842 32.1806 7.04714C33.933 6.35294 35.3228 4.93512 35.9806 3.15722L35.9824 3.15549Z" fill="white"></path></svg>