<svg xmlns="http://www.w3.org/2000/svg" width="105" height="106" viewBox="0 0 105 106" fill="none"><path d="M57.8746 3C53.8751 3 49.0277 3 47.5215 3.945C46.0154 4.88999 45.3851 6.53999 44.1189 9.84498C42.6797 13.57 41.6589 17.445 37.6593 19.6699L35.7181 20.6399C30.7926 22.8399 25.7778 20.9699 20.869 19.7699C18.7366 19.2626 16.5475 18.9708 14.3426 18.8999C13.8818 18.8891 13.4262 18.9896 13.0238 19.1911C12.6213 19.3926 12.2869 19.6875 12.0555 20.0449L2.88503 33.6999C2.64418 34.0482 2.5115 34.4478 2.50071 34.8574C2.48993 35.267 2.60142 35.6718 2.82367 36.0299C3.52094 37.1199 4.7314 38.8049 6.35465 40.3799C10.2259 44.1349 14.7777 47.4698 14.7777 53.0198C14.7777 58.5698 10.2315 61.8998 6.35465 65.6648C5.00686 66.9952 3.82302 68.4519 2.82367 70.0098C2.60248 70.3672 2.49157 70.7711 2.50235 71.1797C2.51314 71.5884 2.64523 71.9871 2.88503 72.3348L12.0611 85.9997C12.5464 86.7247 13.3999 87.1747 14.3426 87.1447C15.8487 87.0947 18.3142 86.9047 20.869 86.2747C25.7778 85.0747 30.7982 83.2047 35.7181 85.3997L37.6593 86.3747C41.6589 88.5997 42.6797 92.4747 44.1189 96.2047C45.3851 99.5047 46.0154 101.155 47.5215 102.1C49.0277 103.045 53.8695 103 57.8746 103" stroke="white" stroke-width="5" stroke-linecap="round" stroke-linejoin="round"></path><path d="M57.8732 70.4997C52.6952 70.4997 47.7293 68.656 44.0679 65.3741C40.4066 62.0923 38.3496 57.6411 38.3496 52.9998C38.3496 48.3585 40.4066 43.9074 44.0679 40.6255C47.7293 37.3436 52.6952 35.4999 57.8732 35.4999M98.3149 16.7499L85.7641 27.9999H74.6077M98.3149 89.2497L85.7641 77.9997H74.6077M98.3149 52.9998H74.6077M94.1313 16.7499C94.1313 17.7445 94.5721 18.6983 95.3567 19.4016C96.1413 20.1048 97.2054 20.4999 98.3149 20.4999C99.4245 20.4999 100.489 20.1048 101.273 19.4016C102.058 18.6983 102.499 17.7445 102.499 16.7499C102.499 15.7554 102.058 14.8015 101.273 14.0983C100.489 13.395 99.4245 12.9999 98.3149 12.9999C97.2054 12.9999 96.1413 13.395 95.3567 14.0983C94.5721 14.8015 94.1313 15.7554 94.1313 16.7499ZM94.1313 89.2497C94.1313 88.2551 94.5721 87.3013 95.3567 86.598C96.1413 85.8948 97.2054 85.4997 98.3149 85.4997C99.4245 85.4997 100.489 85.8948 101.273 86.598C102.058 87.3013 102.499 88.2551 102.499 89.2497C102.499 90.2442 102.058 91.1981 101.273 91.9013C100.489 92.6046 99.4245 92.9997 98.3149 92.9997C97.2054 92.9997 96.1413 92.6046 95.3567 91.9013C94.5721 91.1981 94.1313 90.2442 94.1313 89.2497ZM94.1313 52.9998C94.1313 53.9944 94.5721 54.9482 95.3567 55.6514C96.1413 56.3547 97.2054 56.7498 98.3149 56.7498C99.4245 56.7498 100.489 56.3547 101.273 55.6514C102.058 54.9482 102.499 53.9944 102.499 52.9998C102.499 52.0052 102.058 51.0514 101.273 50.3482C100.489 49.6449 99.4245 49.2498 98.3149 49.2498C97.2054 49.2498 96.1413 49.6449 95.3567 50.3482C94.5721 51.0514 94.1313 52.0052 94.1313 52.9998Z" stroke="white" stroke-width="5" stroke-linecap="round" stroke-linejoin="round"></path></svg>