<svg xmlns="http://www.w3.org/2000/svg" width="39" height="37" viewBox="0 0 39 37" fill="none"><path d="M29.1696 0.62439H10.3902C5.20204 0.62439 0.982422 4.85535 0.982422 10.0575V27.2843C0.982422 32.4864 5.20204 36.7174 10.3902 36.7174H29.1696C34.3578 36.7174 38.5774 32.4864 38.5774 27.2843V10.0575C38.5774 4.85535 34.3578 0.62439 29.1696 0.62439ZM4.30079 10.0575C4.30079 6.69038 7.03215 3.95168 10.3902 3.95168H29.1696C32.5277 3.95168 35.259 6.69038 35.259 10.0575V27.2843C35.259 30.6514 32.5277 33.3901 29.1696 33.3901H10.3902C7.03215 33.3901 4.30079 30.6514 4.30079 27.2843V10.0575Z" fill="white"></path><path d="M19.7791 27.4453C24.6047 27.4453 28.5308 23.5086 28.5308 18.67C28.5308 13.8314 24.6047 9.89478 19.7791 9.89478C14.9535 9.89478 11.0273 13.8314 11.0273 18.67C11.0273 23.5086 14.9535 27.4453 19.7791 27.4453ZM19.7791 13.2238C22.7746 13.2238 25.2107 15.6665 25.2107 18.67C25.2107 21.6736 22.7746 24.1163 19.7791 24.1163C16.7836 24.1163 14.3474 21.6736 14.3474 18.67C14.3474 15.6665 16.7836 13.2238 19.7791 13.2238Z" fill="white"></path><path d="M29.3428 11.3108C30.6429 11.3108 31.7012 10.2496 31.7012 8.94606C31.7012 7.6425 30.6429 6.5813 29.3428 6.5813C28.0427 6.5813 26.9844 7.6425 26.9844 8.94606C26.9844 10.2496 28.0427 11.3108 29.3428 11.3108Z" fill="white"></path></svg>