<svg xmlns="http://www.w3.org/2000/svg" width="28" height="18" viewBox="0 0 28 18" fill="none"><path fill-rule="evenodd" clip-rule="evenodd" d="M0.873325 8.99996C0.873325 9.2486 0.972095 9.48706 1.14791 9.66288C1.32373 9.83869 1.56218 9.93746 1.81083 9.93746L23.9227 9.93746L18.0221 15.8362C17.846 16.0122 17.7471 16.251 17.7471 16.5C17.7471 16.7489 17.846 16.9877 18.0221 17.1637C18.1981 17.3398 18.4369 17.4386 18.6858 17.4386C18.9348 17.4386 19.1735 17.3398 19.3496 17.1637L26.8496 9.66371C26.9369 9.57663 27.0061 9.47317 27.0534 9.35928C27.1007 9.24538 27.125 9.12328 27.125 8.99996C27.125 8.87665 27.1007 8.75455 27.0534 8.64065C27.0061 8.52675 26.9369 8.4233 26.8496 8.33621L19.3496 0.836213C19.2624 0.749048 19.1589 0.679906 19.045 0.632732C18.9312 0.585559 18.8091 0.561279 18.6858 0.561279C18.4369 0.561279 18.1981 0.660176 18.0221 0.836213C17.846 1.01225 17.7471 1.25101 17.7471 1.49996C17.7471 1.74892 17.846 1.98768 18.0221 2.16371L23.9227 8.06246L1.81083 8.06246C1.56218 8.06246 1.32373 8.16124 1.14791 8.33705C0.972095 8.51287 0.873325 8.75132 0.873325 8.99996Z" fill="#F8F8F8"></path></svg>