<svg xmlns="http://www.w3.org/2000/svg" width="39" height="37" viewBox="0 0 39 37" fill="none"><path d="M29.1696 0.624268H10.3902C5.20204 0.624268 0.982422 4.85523 0.982422 10.0574V27.2841C0.982422 32.4863 5.20204 36.7172 10.3902 36.7172H29.1696C34.3578 36.7172 38.5774 32.4863 38.5774 27.2841V10.0574C38.5774 4.85523 34.3578 0.624268 29.1696 0.624268ZM4.30079 10.0574C4.30079 6.69026 7.03215 3.95156 10.3902 3.95156H29.1696C32.5277 3.95156 35.259 6.69026 35.259 10.0574V27.2841C35.259 30.6512 32.5277 33.3899 29.1696 33.3899H10.3902C7.03215 33.3899 4.30079 30.6512 4.30079 27.2841V10.0574Z" fill="white"></path><path d="M19.7791 27.445C24.6047 27.445 28.5308 23.5084 28.5308 18.6698C28.5308 13.8312 24.6047 9.89453 19.7791 9.89453C14.9535 9.89453 11.0273 13.8312 11.0273 18.6698C11.0273 23.5084 14.9535 27.445 19.7791 27.445ZM19.7791 13.2235C22.7746 13.2235 25.2107 15.6662 25.2107 18.6698C25.2107 21.6733 22.7746 24.116 19.7791 24.116C16.7836 24.116 14.3474 21.6733 14.3474 18.6698C14.3474 15.6662 16.7836 13.2235 19.7791 13.2235Z" fill="white"></path><path d="M29.3428 11.3108C30.6429 11.3108 31.7012 10.2496 31.7012 8.94606C31.7012 7.6425 30.6429 6.5813 29.3428 6.5813C28.0427 6.5813 26.9844 7.6425 26.9844 8.94606C26.9844 10.2496 28.0427 11.3108 29.3428 11.3108Z" fill="white"></path></svg>