<svg xmlns="http://www.w3.org/2000/svg" width="36" height="29" viewBox="0 0 36 29" fill="none"><path d="M35.9824 3.15539C35.1502 3.99847 33.9968 4.51955 32.7192 4.51955C32.5569 4.51955 32.3947 4.51089 32.2375 4.49358C33.5704 3.69206 34.5994 2.43696 35.1122 0.939511C35.1122 0.939511 35.1139 0.939509 35.1139 0.937778C35.1847 0.736964 35.2451 0.534422 35.2934 0.324951C34.2385 1.4554 32.7969 2.22057 31.1791 2.40234C30.9305 2.43177 30.6785 2.44562 30.4229 2.44562C30.3418 2.44562 30.2641 2.44389 30.1864 2.4387C29.6391 1.86222 28.9865 1.38615 28.2631 1.03646C27.4568 0.641751 26.5555 0.409774 25.6042 0.380344C25.5265 0.375151 25.4489 0.373423 25.3677 0.373423C24.5614 0.373423 23.7879 0.517107 23.0732 0.781975C22.8902 0.84949 22.7123 0.922197 22.5379 1.00702C20.2727 2.07169 18.705 4.37933 18.705 7.05397C18.705 7.60275 18.7724 8.13595 18.895 8.64491C18.2009 8.61721 17.5138 8.54969 16.8404 8.44929C16.6246 8.41466 16.4087 8.37831 16.1946 8.33676C14.4768 8.0165 12.8383 7.46599 11.3155 6.71812C9.95332 6.0499 8.68261 5.22586 7.52757 4.2668C6.55553 3.46354 5.6664 2.5668 4.8722 1.58696C4.83767 1.54542 4.80308 1.50214 4.77027 1.46059C4.72366 1.53157 4.6805 1.60255 4.64079 1.67699C4.08485 2.65163 3.77061 3.77861 3.77061 4.98004C3.77061 5.01639 3.77066 5.05621 3.77238 5.09256C3.78619 5.99277 3.97609 6.84969 4.31622 7.62871C4.46125 7.97494 4.63732 8.30214 4.83932 8.61201C5.43497 9.53126 6.2482 10.2964 7.20814 10.8262C7.2513 10.8539 7.2962 10.8764 7.34109 10.8971C7.27203 10.911 7.2012 10.9231 7.13041 10.93C6.93359 10.956 6.72986 10.9699 6.52613 10.9699C5.50403 10.9699 4.55273 10.6496 3.77407 10.1043C3.76889 10.1614 3.76893 10.2203 3.76893 10.2791C3.76893 12.1869 4.56658 13.9076 5.84421 15.1212C6.83868 16.0733 8.1249 16.7121 9.55446 16.8991C9.03995 17.0878 8.48405 17.1899 7.90566 17.1899C7.27894 17.1899 6.6781 17.0705 6.12907 16.8506C6.94744 19.5183 9.387 21.4745 12.2945 21.5611C10.5179 23.4117 8.02306 24.5612 5.26235 24.5612C3.54619 24.5612 1.93364 24.1163 0.535156 23.3373C3.89669 26.2543 8.28031 28.0166 13.0749 28.0166C23.6705 28.0166 32.2582 19.4058 32.2582 8.78166C32.2582 8.19653 32.2324 7.61833 32.1806 7.04704C33.933 6.35285 35.3228 4.93503 35.9806 3.15713L35.9824 3.15539Z" fill="white"></path></svg>