<svg xmlns="http://www.w3.org/2000/svg" width="41" height="32" viewBox="0 0 41 32" fill="none"><path d="M34.7509 3.30253C32.1784 2.11842 29.4194 1.24591 26.5344 0.747338C26.4826 0.736951 26.429 0.761185 26.4031 0.809657C26.0475 1.44326 25.6555 2.26729 25.3793 2.91648C22.2767 2.45079 19.1897 2.45079 16.1511 2.91648C15.8765 2.25344 15.4691 1.44153 15.1117 0.809657C15.0841 0.762916 15.0323 0.738682 14.9788 0.747338C12.0955 1.24591 9.33651 2.11669 6.76226 3.30253C6.73982 3.31292 6.72082 3.32849 6.70873 3.34927C1.47565 11.1897 0.0409017 18.8362 0.745322 26.3876C0.748775 26.4239 0.76946 26.4603 0.797084 26.4828C4.25013 29.0258 7.59438 30.5683 10.8765 31.5914C10.9283 31.607 10.9853 31.588 11.0181 31.5447C11.7951 30.4818 12.4874 29.3599 13.0796 28.181C13.1141 28.1118 13.0796 28.0304 13.0088 28.0027C11.9107 27.5855 10.8662 27.0766 9.85963 26.4983C9.78021 26.4516 9.77325 26.3374 9.84749 26.2837C10.0599 26.1244 10.2705 25.96 10.4725 25.792C10.5088 25.7609 10.5606 25.7557 10.6038 25.7747C17.2112 28.7991 24.3624 28.7991 30.8921 25.7747C30.9352 25.7539 30.9854 25.7609 31.0233 25.7903C31.2253 25.9565 31.4377 26.1244 31.65 26.2837C31.7226 26.3391 31.7191 26.4516 31.6397 26.4983C30.6348 27.0869 29.5886 27.5855 28.4888 28.001C28.418 28.0287 28.3852 28.1118 28.4197 28.181C29.0257 29.3582 29.718 30.48 30.4794 31.5429C30.5105 31.588 30.5693 31.607 30.621 31.5914C33.9187 30.5683 37.2647 29.0241 40.7177 26.4828C40.7488 26.4603 40.7678 26.4274 40.7695 26.3893C41.612 17.6573 39.359 10.0731 34.8009 3.351C34.7906 3.32849 34.7715 3.31292 34.7491 3.30253H34.7509ZM14.0672 21.7896C12.0782 21.7896 10.4397 19.958 10.4397 17.7092C10.4397 15.4605 12.0472 13.6289 14.0672 13.6289C16.0872 13.6289 17.7274 15.476 17.6946 17.7092C17.6946 19.958 16.0872 21.7896 14.0672 21.7896ZM27.4805 21.7896C25.4916 21.7896 23.8531 19.958 23.8531 17.7092C23.8531 15.4605 25.4605 13.6289 27.4805 13.6289C29.5005 13.6289 31.1407 15.476 31.1079 17.7092C31.1079 19.958 29.5161 21.7896 27.4805 21.7896Z" fill="white"></path></svg>