<svg xmlns="http://www.w3.org/2000/svg" width="39" height="37" viewBox="0 0 39 37" fill="none"><path d="M29.1716 0.124268H10.3922C5.20399 0.124268 0.984375 4.35523 0.984375 9.55736V26.7841C0.984375 31.9863 5.20399 36.2172 10.3922 36.2172H29.1716C34.3597 36.2172 38.5794 31.9863 38.5794 26.7841V9.55736C38.5794 4.35523 34.3597 0.124268 29.1716 0.124268ZM4.30274 9.55736C4.30274 6.19026 7.0341 3.45156 10.3922 3.45156H29.1716C32.5296 3.45156 35.261 6.19026 35.261 9.55736V26.7841C35.261 30.1512 32.5296 32.8899 29.1716 32.8899H10.3922C7.0341 32.8899 4.30274 30.1512 4.30274 26.7841V9.55736Z" fill="white"></path><path d="M19.7791 26.945C24.6047 26.945 28.5308 23.0084 28.5308 18.1698C28.5308 13.3312 24.6047 9.39453 19.7791 9.39453C14.9535 9.39453 11.0273 13.3312 11.0273 18.1698C11.0273 23.0084 14.9535 26.945 19.7791 26.945ZM19.7791 12.7235C22.7746 12.7235 25.2107 15.1662 25.2107 18.1698C25.2107 21.1733 22.7746 23.616 19.7791 23.616C16.7836 23.616 14.3474 21.1733 14.3474 18.1698C14.3474 15.1662 16.7836 12.7235 19.7791 12.7235Z" fill="white"></path><path d="M29.3428 10.8108C30.6429 10.8108 31.7012 9.74963 31.7012 8.44606C31.7012 7.1425 30.6429 6.0813 29.3428 6.0813C28.0427 6.0813 26.9844 7.1425 26.9844 8.44606C26.9844 9.74963 28.0427 10.8108 29.3428 10.8108Z" fill="white"></path></svg>