<svg xmlns="http://www.w3.org/2000/svg" width="36" height="29" viewBox="0 0 36 29" fill="none"><path d="M35.9824 3.65539C35.1502 4.49847 33.9968 5.01955 32.7192 5.01955C32.5569 5.01955 32.3947 5.01089 32.2375 4.99358C33.5704 4.19206 34.5994 2.93696 35.1122 1.43951C35.1122 1.43951 35.1139 1.43951 35.1139 1.43778C35.1847 1.23696 35.2451 1.03442 35.2934 0.824951C34.2385 1.9554 32.7969 2.72057 31.1791 2.90234C30.9305 2.93177 30.6785 2.94562 30.4229 2.94562C30.3418 2.94562 30.2641 2.94389 30.1864 2.9387C29.6391 2.36222 28.9865 1.88615 28.2631 1.53646C27.4568 1.14175 26.5555 0.909774 25.6042 0.880344C25.5265 0.875151 25.4489 0.873423 25.3677 0.873423C24.5614 0.873423 23.7879 1.01711 23.0732 1.28197C22.8902 1.34949 22.7123 1.4222 22.5379 1.50702C20.2727 2.57169 18.705 4.87933 18.705 7.55397C18.705 8.10275 18.7724 8.63595 18.895 9.14491C18.2009 9.11721 17.5138 9.04969 16.8404 8.94929C16.6246 8.91466 16.4087 8.87831 16.1946 8.83676C14.4768 8.5165 12.8383 7.96599 11.3155 7.21812C9.95332 6.5499 8.68261 5.72586 7.52757 4.7668C6.55553 3.96354 5.6664 3.0668 4.8722 2.08696C4.83767 2.04542 4.80308 2.00214 4.77027 1.96059C4.72366 2.03157 4.6805 2.10255 4.64079 2.17699C4.08485 3.15163 3.77061 4.27861 3.77061 5.48004C3.77061 5.51639 3.77066 5.55621 3.77238 5.59256C3.78619 6.49277 3.97609 7.34969 4.31622 8.12871C4.46125 8.47494 4.63732 8.80214 4.83932 9.11201C5.43497 10.0313 6.2482 10.7964 7.20814 11.3262C7.2513 11.3539 7.2962 11.3764 7.34109 11.3971C7.27203 11.411 7.2012 11.4231 7.13041 11.43C6.93359 11.456 6.72986 11.4699 6.52613 11.4699C5.50403 11.4699 4.55273 11.1496 3.77407 10.6043C3.76889 10.6614 3.76893 10.7203 3.76893 10.7791C3.76893 12.6869 4.56658 14.4076 5.84421 15.6212C6.83868 16.5733 8.1249 17.2121 9.55446 17.3991C9.03995 17.5878 8.48405 17.6899 7.90566 17.6899C7.27894 17.6899 6.6781 17.5705 6.12907 17.3506C6.94744 20.0183 9.387 21.9745 12.2945 22.0611C10.5179 23.9117 8.02306 25.0612 5.26235 25.0612C3.54619 25.0612 1.93364 24.6163 0.535156 23.8373C3.89669 26.7543 8.28031 28.5166 13.0749 28.5166C23.6705 28.5166 32.2582 19.9058 32.2582 9.28166C32.2582 8.69653 32.2324 8.11833 32.1806 7.54704C33.933 6.85285 35.3228 5.43503 35.9806 3.65713L35.9824 3.65539Z" fill="white"></path></svg>