<svg xmlns="http://www.w3.org/2000/svg" width="40" height="39" viewBox="0 0 40 39" fill="none"><path d="M25.6859 28.0708C17.9182 28.069 11.5974 21.7312 11.5957 13.9445C11.5992 11.971 13.1997 10.3644 15.1662 10.3644C15.3682 10.3644 15.5684 10.3818 15.7584 10.4164C16.1796 10.4856 16.5784 10.6293 16.9479 10.844C17.0014 10.8751 17.0377 10.9271 17.0463 10.9877L17.8664 16.176C17.8768 16.2365 17.8578 16.2971 17.8181 16.3421C17.364 16.8459 16.7856 17.2077 16.1434 17.3895L15.8326 17.4778L15.95 17.779C17.0101 20.4814 19.1648 22.6436 21.8616 23.7065L22.162 23.8242L22.2501 23.5126C22.4313 22.8669 22.7922 22.2869 23.2946 21.8334C23.3309 21.8005 23.3792 21.7815 23.4293 21.7815C23.4396 21.7815 23.4517 21.7814 23.4621 21.7849L28.6347 22.6072C28.6969 22.6176 28.747 22.6522 28.7798 22.7059C28.9921 23.0764 29.1354 23.478 29.2062 23.8987C29.239 24.0874 29.2563 24.2847 29.2563 24.4924C29.2563 26.4642 27.6541 28.069 25.6859 28.0725V28.0708Z" fill="white"></path><path d="M39.4596 17.4605C39.0401 12.7136 36.8716 8.3113 33.3529 5.06538C29.8135 1.79868 25.2193 0 20.4161 0C9.87397 0 1.29662 8.6004 1.29662 19.1709C1.29662 22.718 2.27208 26.1751 4.11945 29.1856L0 38.3314L13.1941 36.9222C15.4886 37.8639 17.9178 38.3417 20.4161 38.3417C21.0739 38.3417 21.7472 38.3071 22.4223 38.2379C23.018 38.1738 23.6188 38.0803 24.211 37.9609C33.0404 36.1726 39.4855 28.3148 39.5356 19.273V19.1709C39.5356 18.5944 39.5097 18.0196 39.4579 17.4622L39.4596 17.4605ZM13.6999 32.9076L6.40022 33.6866L8.5808 28.8446L8.14571 28.2577C8.11291 28.2144 8.08182 28.1712 8.04556 28.1227C6.1533 25.5035 5.15364 22.4081 5.15364 19.1691C5.15364 10.7297 12.001 3.86567 20.4161 3.86567C28.3011 3.86567 34.9827 10.0338 35.6267 17.9071C35.6613 18.3295 35.6785 18.7537 35.6785 19.1709C35.6785 19.2903 35.6768 19.408 35.6734 19.5327C35.5111 26.5923 30.5922 32.5874 23.7121 34.1143C23.1872 34.232 22.6485 34.3202 22.1116 34.3791C21.5539 34.4432 20.9824 34.4743 20.4144 34.4743C18.3926 34.4743 16.4278 34.0814 14.5701 33.3058C14.3646 33.2227 14.1626 33.1344 13.9727 33.0427L13.6965 32.9094L13.6999 32.9076Z" fill="white"></path></svg>