<svg xmlns="http://www.w3.org/2000/svg" width="40" height="39" viewBox="0 0 40 39" fill="none"><path d="M25.6859 28.5708C17.9182 28.5691 11.5974 22.2313 11.5957 14.4446C11.5992 12.471 13.1997 10.8645 15.1662 10.8645C15.3682 10.8645 15.5684 10.8818 15.7584 10.9164C16.1796 10.9857 16.5784 11.1294 16.9479 11.344C17.0014 11.3752 17.0377 11.4271 17.0463 11.4877L17.8664 16.676C17.8768 16.7366 17.8578 16.7972 17.8181 16.8422C17.364 17.346 16.7856 17.7078 16.1434 17.8896L15.8326 17.9778L15.95 18.2791C17.0101 20.9814 19.1648 23.1436 21.8616 24.2066L22.162 24.3243L22.2501 24.0127C22.4313 23.367 22.7922 22.787 23.2946 22.3334C23.3309 22.3005 23.3792 22.2815 23.4293 22.2815C23.4396 22.2815 23.4517 22.2815 23.4621 22.285L28.6347 23.1073C28.6969 23.1176 28.747 23.1523 28.7798 23.206C28.9921 23.5764 29.1354 23.9781 29.2062 24.3987C29.239 24.5874 29.2563 24.7848 29.2563 24.9925C29.2563 26.9643 27.6541 28.5691 25.6859 28.5725V28.5708Z" fill="white"></path><path d="M39.4596 17.9605C39.0401 13.2136 36.8716 8.8113 33.3529 5.56538C29.8135 2.29868 25.2193 0.5 20.4161 0.5C9.87397 0.5 1.29662 9.1004 1.29662 19.6709C1.29662 23.218 2.27208 26.6751 4.11945 29.6856L0 38.8314L13.1941 37.4222C15.4886 38.3639 17.9178 38.8417 20.4161 38.8417C21.0739 38.8417 21.7472 38.8071 22.4223 38.7379C23.018 38.6738 23.6188 38.5803 24.211 38.4609C33.0404 36.6726 39.4855 28.8148 39.5356 19.773V19.6709C39.5356 19.0944 39.5097 18.5196 39.4579 17.9622L39.4596 17.9605ZM13.6999 33.4076L6.40022 34.1866L8.5808 29.3446L8.14571 28.7577C8.11291 28.7144 8.08182 28.6712 8.04556 28.6227C6.1533 26.0035 5.15364 22.9081 5.15364 19.6691C5.15364 11.2297 12.001 4.36567 20.4161 4.36567C28.3011 4.36567 34.9827 10.5338 35.6267 18.4071C35.6613 18.8295 35.6785 19.2537 35.6785 19.6709C35.6785 19.7903 35.6768 19.908 35.6734 20.0327C35.5111 27.0923 30.5922 33.0874 23.7121 34.6143C23.1872 34.732 22.6485 34.8202 22.1116 34.8791C21.5539 34.9432 20.9824 34.9743 20.4144 34.9743C18.3926 34.9743 16.4278 34.5814 14.5701 33.8058C14.3646 33.7227 14.1626 33.6344 13.9727 33.5427L13.6965 33.4094L13.6999 33.4076Z" fill="white"></path></svg>