<svg xmlns="http://www.w3.org/2000/svg" id="Layer_2" data-name="Layer 2" viewBox="0 0 1187.34 315.07"><defs><style>      .cls-1 {        stroke: #553b89;        stroke-width: 8.5px;      }      .cls-1, .cls-2, .cls-3 {        fill: none;        stroke-miterlimit: 10;      }      .cls-4 {        fill: #fdfefe;      }      .cls-5, .cls-6 {        fill: #553b89;      }      .cls-2 {        stroke-linecap: round;      }      .cls-2, .cls-3 {        stroke: #fff;        stroke-width: 4.25px;      }      .cls-6 {        fill-rule: evenodd;      }    </style></defs><path class="cls-5" d="M33.79,133.58v77.47s5.74-31.68,55.42-36.65c-4.97,49.69-36.31,55.81-36.31,55.81h77.47v-.04h77.47s-31.68-5.74-36.65-55.42c49.69,4.97,55.81,36.31,55.81,36.31V54.5s-5.74,31.68-55.42,36.65c4.97-49.69,36.31-55.81,36.31-55.81h-77.47v.04H52.95s31.68,5.74,36.65,55.42c-49.69-4.97-55.81-36.31-55.81-36.31v77.47"></path><path class="cls-1" d="M131.16,310.57C3.74,265.71,4.25,170.41,4.25,170.41V4.25h253.83V170.41s.51,95.31-126.91,140.16Z"></path><path class="cls-4" d="M133.84,105.3v49.24h3.44l1.72-2.29h26.19v-50.01s-25.61-10.89-31.34,3.06h0Z"></path><path class="cls-4" d="M126.44,105.3v49.24h-3.44l-1.72-2.29h-26.19v-50.01s25.61-10.89,31.34,3.06h0Z"></path><path class="cls-4" d="M171.87,103.19v55.62h-29.43v4.72h36.38v-11.47h14.53c3.02,0,5.48-2.45,5.48-5.48h0c0-3.02-2.45-5.48-5.48-5.48h-14.53v-15.55h14.27c3.17,0,5.74-2.57,5.74-5.74h0c0-3.17-2.57-5.74-5.74-5.74h-14.4v-8.66s-3.69-4.58-6.81-2.23h0Z"></path><path class="cls-4" d="M118.36,158.8v4.72h-36.38v-11.47h-12.93v-10.95h12.93v-15.55h-12.93v-11.47h13.06v-8.66s3.7-4.59,6.82-2.23v55.61h29.43Z"></path><path class="cls-4" d="M118.36,158.8h.19c2.04,0,4.01,.62,5.73,1.74,2.93,1.92,10.76,1.84,13.47-.15,1.3-.95,2.82-1.58,4.44-1.58h.27v4.72h-1.46c-7.14,4.75-12.63,4.22-21.02,0h-1.59v-4.72h-.02Z"></path><ellipse class="cls-3" cx="64.87" cy="119.63" rx="4.78" ry="6.08"></ellipse><line class="cls-2" x1="73.5" y1="119.63" x2="58.31" y2="119.63"></line><ellipse class="cls-3" cx="64.87" cy="147" rx="4.78" ry="6.08"></ellipse><line class="cls-2" x1="73.5" y1="147" x2="58.31" y2="147"></line><path class="cls-6" d="M347.56,277.8l-5.33,12.83h10.73l-5.4-12.83h0Zm-17.56,25.74c1.25-.13,2.4-.34,3.22-1.43,.64-.82,1.8-3.18,3.51-7.15l11.37-26.74h1.77l13.56,30.83c.89,2.05,1.55,3.19,1.98,3.59,.72,.62,1.99,.78,2.89,.9v2.02h-14.8v-2.04c1.06-.09,2.39-.07,3.38-.49,.15-.08,.35-.29,.35-1,0-.82-.64-2.54-.95-3.27l-2.09-4.85h-13.36c-1.3,3.31-2.1,5.34-2.36,6.08-.25,.77-.37,1.31-.37,1.67,0,.72,.26,1.16,.78,1.4,.68,.3,2.13,.39,2.89,.46v2.04h-11.77v-2.02h0Z"></path><path class="cls-5" d="M412.96,270.92c-1.02,.06-3.38,.2-4.2,.95-.41,.37-.75,1.38-.75,3.37v17.21c0,2.78,.38,4.89,1.11,6.35,1.31,2.64,3.81,4,7.67,4,8.08,0,9.57-4.73,9.57-11.49v-14.01c0-2.97-.37-4.57-.9-5.11-.92-.97-2.93-1.19-4.15-1.29v-2.05h13.57v2.05c-1.19,.13-3.4,.35-4.23,1.38-.48,.59-.82,2.18-.82,5.03v14.01c0,3.76-.58,6.75-1.78,8.96-2.23,4.07-6.46,6.04-12.47,6.04s-10.11-1.94-12.35-5.94c-1.2-2.16-1.78-4.94-1.78-8.32v-16.82c0-1.97-.33-2.99-.73-3.34-.78-.75-3.12-.9-4.12-.99v-2.05h16.37v2.07h0Z"></path><path class="cls-5" d="M467.47,299.61c2.03,2.39,4.53,3.57,7.55,3.57,1.58,0,2.93-.52,4.09-1.5,1.11-.96,1.69-2.32,1.69-4.14,0-1.6-.56-2.98-1.73-4.17-1.86-1.88-7.59-5.18-9.7-6.5-1.41-.87-2.56-1.79-3.43-2.74-1.6-1.8-2.43-3.79-2.43-6,0-6.08,4.49-10.04,10.44-10.04,1.31,0,2.85,.33,4.6,.95,1.79,.62,2.66,.87,2.78,.87,.62,0,.86-.15,.95-.28,.36-.44,.47-1.01,.6-1.54h2.03l1.3,12.56h-2.33c-.69-2.65-1.74-5.64-4.13-7.31-1.85-1.34-3.66-1.96-5.41-1.96-2.61,0-4.94,1.54-4.94,4.37,0,1.26,.38,2.32,1.12,3.18,.78,.95,2.05,1.94,3.78,3.02l4.73,2.93c2.99,1.83,5.14,3.53,6.4,5.15,1.28,1.65,1.91,3.59,1.91,5.82,0,2.97-1.13,5.48-3.38,7.47-2.25,2.01-5.09,2.99-8.52,2.99-1.73,0-3.55-.34-5.41-.98-1.87-.65-2.78-.91-2.93-.91-.53,0-.72,.14-.81,.29-.27,.51-.33,.96-.43,1.53h-2.12l-1.77-12.57h2.26c.78,2.12,1.75,4.23,3.24,5.98"></path><path class="cls-5" d="M550.06,268.83l.31,10.25h-2.3c-.34-1.49-1.01-4.56-2.35-5.73-.79-.71-2.61-1.17-5.76-1.17h-2.43v26.97c0,2.12,.33,3.13,.74,3.46,.87,.66,3.45,.81,4.48,.9v2.04h-16.8v-2.04c4.49-.35,5.1-.37,5.1-4.98v-26.36h-2.44c-2.98,0-4.84,.44-5.76,1.16-1.44,1.14-2.02,4.2-2.31,5.74h-2.34l.36-10.25h31.49Z"></path><path class="cls-6" d="M601.44,278.76c0-2.93-1.17-4.85-3.51-5.89-1.27-.55-3-.87-5.21-.87-1.59,0-2.33,.14-2.52,.25-.06,.04-.24,.27-.24,1.06v12.69c3.55-.15,6.06-.54,7.55-1.14,2.64-1.1,3.93-3.09,3.93-6.11m-18.69,23.72c.37-.44,.64-1.65,.64-3.93v-23.32c0-1.91-.31-2.91-.72-3.32-.71-.78-2.93-.94-3.91-1.01v-2.07h15.45c3.16,0,5.81,.41,7.96,1.23,4.12,1.58,6.23,4.51,6.23,8.73,0,2.83-.92,5.04-2.83,6.61-1.64,1.36-3.79,2.28-6.41,2.79l10.49,12.91c1.48,1.82,2.51,2.19,4.8,2.41v2.04h-9.49l-12.82-16.55-2.17,.11v10.05c0,2.03,.3,3.04,.7,3.4,.81,.7,3.15,.87,4.15,.96v2.04h-16.05v-2.04c.92-.09,3.35-.28,3.99-1.05"></path><path class="cls-6" d="M663.38,277.8l-5.33,12.83h10.72l-5.39-12.83h0Zm-17.56,25.74c1.25-.13,2.4-.34,3.22-1.43,.63-.82,1.81-3.18,3.51-7.15l11.36-26.74h1.77l13.56,30.83c.9,2.05,1.55,3.19,1.98,3.59,.71,.62,2,.78,2.89,.9v2.02h-14.79v-2.04c1.06-.09,2.39-.07,3.38-.49,.15-.08,.34-.29,.34-1,0-.82-.63-2.54-.95-3.27l-2.09-4.85h-13.36c-1.3,3.31-2.1,5.34-2.37,6.08-.25,.76-.35,1.31-.35,1.67,0,.72,.26,1.16,.78,1.4,.68,.3,2.13,.39,2.89,.46v2.04h-11.77v-2.02h0Z"></path><path class="cls-5" d="M715.42,302.56c.37-.33,.69-1.32,.69-3.38v-23.95c0-1.93-.3-2.94-.71-3.34-.75-.77-3.03-.9-4.01-.98v-2.06h16.32v2.07c-1.1,.06-3.28,.15-4.2,.87-.45,.37-.78,1.29-.78,3.07v25.86c0,.54,.08,.9,.22,1.14,.07,.12,.28,.29,.92,.37l1.22,.1,2.5,.02c4.8,0,7.9-.39,9.45-1.12,2.21-1.03,3.84-4.18,4.77-6.08h2.44l-2.93,10.44h-29.93v-2.02c.96-.1,3.26-.32,4.04-.97"></path><path class="cls-5" d="M776.75,302.63c.42-.33,.77-1.34,.77-3.46v-23.93c0-1.99-.35-3.02-.78-3.39-.86-.78-3.38-.87-4.44-.92v-2.08h17.03v2.09c-1.05,.04-3.57,.13-4.43,.91-.45,.37-.78,1.4-.78,3.39v23.93c0,2.12,.35,3.13,.76,3.46,.87,.66,3.43,.81,4.47,.9v2.04h-17.03v-2.04c1.03-.09,3.6-.24,4.47-.9"></path><path class="cls-6" d="M835.46,277.8l-5.33,12.83h10.72l-5.39-12.83h0Zm-17.56,25.74c1.25-.13,2.4-.34,3.22-1.43,.63-.82,1.81-3.18,3.5-7.15l11.38-26.74h1.77l13.56,30.83c.88,2.05,1.55,3.19,1.98,3.59,.71,.62,1.99,.78,2.89,.9v2.02h-14.81v-2.04c1.06-.09,2.39-.07,3.38-.49,.16-.08,.35-.29,.35-1,0-.82-.63-2.54-.95-3.27l-2.08-4.85h-13.36c-1.31,3.31-2.1,5.34-2.37,6.08-.24,.76-.37,1.31-.37,1.67,0,.72,.28,1.16,.78,1.4,.67,.3,2.13,.39,2.89,.46v2.04h-11.76v-2.02h0Z"></path><path class="cls-6" d="M917.98,25.47v26.44h5.62c8.14,0,14.6-6.46,14.6-14.04s-6.46-13.49-14.6-13.49c0,0-2.64-.31-5.62,1.09m31.74,12.4c.08,7.58-6.18,14.18-15.18,16.85l19.52,25.56c1.97,2.25,3.8,4.91,6.47,4.91h.42v1.83h-15.17l-23.45-30.91h-4.34v22.06c0,4.5,1.83,7.02,6.17,7.02h.43v1.83h-24.16v-1.83h.71c4.2,0,6.03-2.52,6.03-7.02V28.89c0-4.36-1.83-7.03-6.03-7.03h-.71v-1.82h17.56c25.84-1.41,31.63,7.2,31.74,17.84"></path><path class="cls-5" d="M373.05,86.74v-2.38h-3.79c-4.09,0-7.45-3.79-7.45-8.01V8.94h15.59c6.46,0,10.39,4.77,10.82,14.18h2.1l-.84-20.23c0-.28-.43-.7-.56-.7h-68.39s-.55,.43-.55,.7l-.86,20.23h2.26c.4-9.41,4.34-14.18,10.81-14.18h15.59V76.35c0,4.22-3.37,8.01-7.57,8.01h-3.94v2.38h36.78Z"></path><path class="cls-5" d="M633.39,10.48c0-4.07-2.4-5.9-5.63-5.9h-3.22V2.05h24.29v2.53h-2.8c-3.65,0-5.76,1.83-5.76,5.9V59.64c0,15.86-12.22,28.09-32.31,28.09s-33.29-12.5-33.29-29.5V12.45c0-4.08-3.23-7.86-7.59-7.86h-.98V2.05h31.18v2.53h-1.11c-4.21,0-7.57,3.79-7.57,7.86V58.65c0,12.35,7.72,22.33,20.64,22.33s24.16-7.44,24.16-21.34V10.48h0Z"></path><path class="cls-5" d="M446.28,54.87h-28.65v23.04c0,4.49,1.83,7.02,6.05,7.02h.43v1.83h-24.04v-1.83h.43c4.63,0,6.05-2.52,6.05-7.02V28.59c0-4.34-1.41-7.02-6.05-7.02h-.43v-1.82h24.04v1.82h-.43c-4.22,0-6.05,2.67-6.05,7.02v21.5h28.65V28.59c0-4.34-1.83-7.02-6.31-7.02h-.42v-1.82h24.3v1.82h-.71c-4.34,0-6.03,2.67-6.03,7.02v49.31c0,4.49,1.69,7.02,6.03,7.02h.71v1.83h-24.3v-1.83h.42c4.49,0,6.31-2.52,6.31-7.02v-23.04h0Z"></path><path class="cls-5" d="M491.93,53.73v24.72c0,1.96,1.55,3.38,3.38,3.38h16.85c9.28,0,13.49-5.49,15.72-13.06h1.98l-5.63,17.97h-49.86v-1.83h.43c4.34,0,6.17-2.52,6.17-7.02V28.61c0-4.36-1.83-7.03-6.17-7.03h-.43v-1.83h48.32l1.12,15.31h-1.69c-.42-7.02-4.35-10.82-9.41-10.82h-20.79v24.44h19.39c3.23,0,4.77-3.51,4.77-6.32v-.42h1.96v18.53h-1.96v-.41c0-3.1-1.54-6.33-4.77-6.33h-19.38Z"></path><path class="cls-5" d="M748.06,77.9c0,4.5,1.83,7.02,6.17,7.02h.28v1.82h-23.87v-1.82h.29c4.63,0,6.47-2.52,6.47-7.02V28.6c0-4.36-1.83-7.03-6.47-7.03h-.29v-1.82h23.87v1.82h-.28c-4.34,0-6.17,2.68-6.17,7.03v49.3h0Z"></path><path class="cls-5" d="M798.02,86.33l23.16-58.85c1.83-3.79,3.51-5.9,6.19-5.9v-1.83h-15.46v1.83h.99c1.97,0,4.07,1.96,3.24,4.5l-16.57,41.3-18.12-41.3c-.98-2.53,1.26-4.5,2.94-4.5h2.25v-1.83h-22.74v1.83c2.66,0,4.49,1.96,6.17,5.62l25.56,59.14c.55,.7,1.83,.98,2.39,0"></path><path class="cls-5" d="M853.26,53.73v24.72c0,1.96,1.54,3.38,3.37,3.38h16.85c9.13,0,13.34-5.49,15.73-13.06h1.97l-5.75,17.97h-49.72v-1.83h.41c4.36,0,6.04-2.52,6.04-7.02V28.61c0-4.36-1.68-7.03-6.04-7.03h-.41v-1.83h48.17l1.27,15.31h-1.69c-.42-7.02-4.49-10.82-9.4-10.82h-20.79v24.44h19.24c3.38,0,4.92-3.51,4.92-6.32v-.42h1.96v18.53h-1.96v-.41c0-3.1-1.54-6.33-4.92-6.33h-19.25Z"></path><path class="cls-5" d="M972.44,63.99h-1.97v22.75h1.97c.83-2.95,3.37-4.35,5.76-2.95,8.14,4.36,18.25,5.06,25.28-.42,6.74-4.92,9.7-14.6,5.48-22.2-3.94-7.44-14.47-13.19-22.61-17.41-9.42-5.34-9.69-14.32-2.52-18.96,8.71-5.06,21.62,3.79,21.62,16.57h1.69V19.75h-1.69c-.56,3.23-2.94,3.51-6.31,2.1-9.28-4.22-16.85-4.08-23.31,1.83-7.31,6.74-8.99,20.36,2.94,27.67,7.17,4.49,16.85,9.54,20.36,14.32,3.23,4.36,3.79,9.55-2.39,14.89-8.99,7.88-24.3-1.68-24.3-16.57"></path><path class="cls-5" d="M671.18,19.75h-17.13v1.83c2.8,0,4.63,.28,6.03,1.96,1.54,1.69,2.52,2.94,4.49,5.2v51.13c0,3.23-2.94,4.91-5.89,4.91h-.71v1.97h18.68v-1.97h-.42c-3.09,0-6.17-1.68-6.17-4.91V35.48l44.25,51.27h1.4V26.64c0-3.37,3.09-5.06,6.05-5.06h.42v-1.83h-18.53v1.83h.55c2.94,0,5.9,1.68,5.9,5.06v38.2l-38.91-45.08h0Z"></path><path class="cls-5" d="M1041.19,77.9c0,4.5,1.83,7.02,6.17,7.02h.43v1.82h-24.15v-1.82h.7c4.34,0,6.03-2.52,6.03-7.02V28.6c0-4.36-1.69-7.03-6.03-7.03h-.7v-1.82h24.15v1.82h-.43c-4.34,0-6.17,2.68-6.17,7.03v49.3h0Z"></path><path class="cls-5" d="M1150.39,58.23l-20.51-31.32c-2.1-3.92-4.36-5.33-7.01-5.33v-1.96h23.73v1.96h-1.54c-1.96,0-3.79,2.39-2.53,4.92l16.87,25.7,15.3-26.12c1.14-1.83-.27-4.5-2.1-4.5h-1.69v-1.96h16.45v1.96c-2.96,0-5.63,1.98-7.6,5.06l-18.26,31.18v20.22c0,4.64,1.82,6.89,6.32,6.89h.43v1.83h-24.45v-1.83h.43c4.49,0,6.19-2.52,6.19-7.16v-19.52h0Z"></path><path class="cls-5" d="M1093.69,78.32c0,4.5,1.82,6.6,6.18,6.6h.28v1.83h-23.87v-1.83h.29c4.34,0,6.46-2.1,6.46-6.6V24.8h-13.49c-5.06,0-8,3.51-8.42,10.82h-1.55l.57-15.45c0-.14,.28-.43,.42-.43h55.34c.14,0,.43,.29,.43,.43l.69,15.45h-1.68c-.42-7.31-3.09-10.82-8.29-10.82h-13.33v53.52h-.02Z"></path><path class="cls-5" d="M425.26,202.2c0,4.49,1.82,6.88,6.05,6.88h.69v1.69h-24.15v-1.69h.42c4.5,0,6.17-2.66,6.17-7.03v-49.15c0-4.5-1.68-7.3-6.17-7.3h-.42v-1.82h51.26l1.11,15.46h-1.53c-.43-6.89-4.5-10.83-9.42-10.83h-24.01v24.3h19.51c3.38,0,4.78-3.09,4.78-6.32v-.42h1.83v18.54h-1.83v-.29c0-3.23-1.4-6.45-4.78-6.45h-19.51v24.44h0Z"></path><path class="cls-5" d="M676.17,177.77v24.72c0,2.1,1.69,3.51,3.66,3.51h16.71c9.12,0,13.35-5.62,15.73-13.2h1.82l-5.48,17.98h-49.86v-1.69h.42c4.49,0,6.17-2.66,6.17-7.03v-49.29c0-4.35-1.69-7.16-6.17-7.16h-.42v-1.83h48.17l1.13,15.45h-1.55c-.28-7.16-4.49-10.81-9.54-10.81h-20.79v24.3h19.52c3.1,0,4.92-3.1,4.92-6.32v-.42h1.68v18.53h-1.68v-.28c0-3.24-1.83-6.46-4.92-6.46h-19.53Z"></path><path class="cls-5" d="M638.57,150.22c0-2.94-1.96-4.63-4.63-4.63h-1.83v-1.83h18.25v1.83h-2.1c-2.67,0-4.34,1.68-4.34,4.63v39.18c0,12.65-9.69,22.05-25.56,22.05s-26.55-9.83-26.55-23.32v-36.09c0-3.23-2.52-6.46-5.9-6.46h-.13v-1.83h23.45v1.83h-.42c-3.09,0-5.75,3.22-5.75,6.46v36.52c0,9.68,6.03,17.82,16.14,17.82s19.38-6.04,19.38-16.99v-39.18h0Z"></path><path class="cls-5" d="M738.72,177.77v24.72c0,2.1,1.56,3.51,3.37,3.51h16.86c9.26,0,13.33-5.62,15.72-13.2h1.97l-5.76,17.98h-49.57v-1.69h.29c4.34,0,6.17-2.66,6.17-7.03v-49.29c0-4.35-1.83-7.16-6.17-7.16h-.29v-1.83h48.03l1.11,15.45h-1.54c-.41-7.16-4.49-10.81-9.4-10.81h-20.79v24.3h19.24c3.38,0,5.2-3.1,5.2-6.32v-.42h1.69v18.53h-1.69v-.28c0-3.24-1.82-6.46-5.2-6.46h-19.24Z"></path><path class="cls-5" d="M929.36,201.78c0,2.11,1.69,4.21,3.51,4.21h15.59c9.13,0,13.34-5.76,15.73-13.49h1.96l-5.48,18.27h-48.74v-1.82h.55c4.22,0,6.04-2.67,6.04-7.17v-48.88c0-4.49-1.82-7.3-6.04-7.3h-.55v-1.83h24.15v1.83h-.41c-4.65,0-6.33,2.81-6.33,7.3v48.88h0Z"></path><path class="cls-5" d="M861.36,188.16h-1.96v22.61h1.96c.71-3.09,3.23-4.35,5.76-2.94,8.14,4.21,18.27,5.18,25.43-.28,6.73-5.06,9.69-14.62,5.49-22.2-3.94-7.58-14.76-13.21-22.62-17.55-9.54-5.33-9.97-14.48-2.52-18.82,8.43-5.2,21.5,3.51,21.5,16.57h1.96v-21.91h-1.96c-.71,3.36-2.94,3.79-6.17,2.38-9.43-4.5-17.14-4.08-23.6,1.69-7.16,6.73-8.71,20.51,3.23,27.82,7.16,4.48,16.85,9.41,20.37,14.32,2.94,4.09,3.79,9.42-2.4,14.89-8.99,7.73-24.44-1.82-24.44-16.56"></path><path class="cls-5" d="M797.96,143.77h-17.13v1.83c2.8,0,4.77,.43,5.89,1.96,1.69,1.83,2.8,2.95,4.78,5.33v50.99c0,3.36-3.09,5.06-6.05,5.06h-.57v1.82h18.54v-1.82h-.43c-3.09,0-6.05-1.69-6.05-5.06v-44.38l44.12,51.26h1.4v-60.11c0-3.23,2.94-5.06,5.9-5.06h.57v-1.83h-18.4v1.83h.43c2.94,0,6.17,1.83,6.17,5.06v38.34l-39.18-45.23h0Z"></path><path class="cls-5" d="M1059.07,143.77h-17.13v1.83c2.66,0,4.63,.43,5.75,1.96,1.69,1.83,2.81,2.95,4.77,5.33v50.99c0,3.36-3.09,5.06-6.03,5.06h-.43v1.82h18.4v-1.82h-.29c-3.23,0-6.18-1.69-6.18-5.06v-44.38l44.09,51.26h1.43v-60.11c0-3.23,2.95-5.06,5.9-5.06h.7v-1.83h-18.12v1.83c2.94,0,6.18,1.83,6.18,5.06v38.34l-39.04-45.23h0Z"></path><path class="cls-6" d="M1030.37,202.94c1.54,3.65,3.51,5.76,6.17,5.76h.71v1.82h-23.32v-1.82h1.82c2.11,0,4.23-2.11,3.24-4.65l-6.46-14.88h-23.73l-6.33,14.88c-.97,2.53,1.4,4.65,3.79,4.65h.86v1.82h-17.84v-1.82h1.26c2.66,0,5.06-2.11,6.88-6.05l24.72-59.84c1.49-1.67,2.28,.23,2.28,.23l25.95,59.88h0Zm-39.74-18.67h19.67l-9.8-22.67-9.86,22.67h0Z"></path><path class="cls-6" d="M1186.4,177.34c0,18.82-15.02,33.57-34.55,33.57h-31.03v-1.83h.55c4.35,0,6.05-2.67,6.05-7.16v-48.88c0-4.5-1.69-7.3-6.05-7.3h-.55v-1.83h25.45c42.84-1.34,40.14,33.43,40.14,33.43m-46.77-28.66v57.03c2.67,.69,4.09,.85,6.6,.85,20.22,0,29.92-11.94,29.92-29.36,.13-.74,1.2-30.41-30.1-29.64,0,0-4-.6-6.43,1.12"></path><path class="cls-6" d="M359.28,125.04c24.61,.35,40.17,19.24,40.17,43.12s-15.73,42.97-40.17,42.97-40.17-19.36-40.17-42.97c2.11-45.05,40.17-43.12,40.17-43.12m-25.13,43.12c.06,22.54,10.44,38.17,25.13,37.92,13.76,0,25.13-13.82,25.13-38.55-.53-32.48-17.2-36.87-25.13-37.3-18.58,.95-25.21,19.58-25.13,37.93"></path><path class="cls-6" d="M536.48,125.54s39.99,.07,40.66,43.72c0,19.38-10.26,35.08-27.11,40.56,3.66,8.29,13.62,17.7,27.39,18.53v2.25c-19.11,0-35.95-6.17-48.74-19.38-19.93-3.79-32.31-21.5-32.31-42.55,0-23.77,15.59-42.94,40.11-43.13m0,5.2s-24.47-1.15-24.79,37.93c0,24.86,11.1,37.92,25.13,37.92s25.01-13.06,25.01-37.92-11.74-37.93-25.36-37.93"></path></svg>